Angelica-Bold.ufo
<glyph name="quotedbl" format="2">
  <advance width="505"/>
  <unicode hex="0022"/>
  <outline>
    <contour>
      <point x="242" y="694" type="line"/>
      <point x="176" y="415" type="line"/>
      <point x="51" y="415" type="line"/>
      <point x="17" y="694" type="line"/>
    </contour>
    <contour>
      <point x="489" y="694" type="line"/>
      <point x="423" y="415" type="line"/>
      <point x="298" y="415" type="line"/>
      <point x="264" y="694" type="line"/>
    </contour>
  </outline>
</glyph>
<glyph name="numbersign" format="2">
  <advance width="508"/>
  <unicode hex="0023"/>
  <outline>
    <contour>
      <point x="484" y="329" type="line"/>
      <point x="397" y="329" type="line"/>
      <point x="382" y="259" type="line"/>
      <point x="463" y="259" type="line"/>
      <point x="463" y="155" type="line"/>
      <point x="362" y="155" type="line"/>
      <point x="332" y="0" type="line"/>
      <point x="232" y="0" type="line"/>
      <point x="262" y="155" type="line"/>
      <point x="194" y="155" type="line"/>
      <point x="164" y="0" type="line"/>
      <point x="64" y="0" type="line"/>
      <point x="94" y="155" type="line"/>
      <point x="31" y="155" type="line"/>
      <point x="31" y="259" type="line"/>
      <point x="114" y="259" type="line"/>
      <point x="129" y="329" type="line"/>
      <point x="29" y="329" type="line"/>
      <point x="29" y="433" type="line"/>
      <point x="149" y="433" type="line"/>
      <point x="180" y="595" type="line"/>
      <point x="280" y="595" type="line"/>
      <point x="249" y="433" type="line"/>
      <point x="317" y="433" type="line"/>
      <point x="348" y="595" type="line"/>
      <point x="448" y="595" type="line"/>
      <point x="417" y="433" type="line"/>
      <point x="484" y="433" type="line"/>
    </contour>
    <contour>
      <point x="282" y="259" type="line"/>
      <point x="297" y="329" type="line"/>
      <point x="229" y="329" type="line"/>
      <point x="214" y="259" type="line"/>
    </contour>
  </outline>
</glyph>
<glyph name="dollar" format="2">
  <advance width="788"/>
  <unicode hex="0024"/>
  <outline>
    <contour>
      <point x="664" y="403" type="qcurve"/>
      <point x="700" y="390"/>
      <point x="747" y="327"/>
      <point x="765" y="263"/>
      <point x="765" y="240" type="qcurve" smooth="yes"/>
      <point x="765" y="205" type="line" smooth="yes"/>
      <point x="765" y="141"/>
      <point x="696" y="40"/>
      <point x="639" y="16" type="qcurve" smooth="yes"/>
      <point x="623" y="9"/>
      <point x="590" y="1"/>
      <point x="573" y="0" type="qcurve"/>
      <point x="553" y="0" type="line"/>
      <point x="553" y="-86" type="line"/>
      <point x="434" y="-86" type="line"/>
      <point x="434" y="0" type="line"/>
      <point x="361" y="0" type="line"/>
      <point x="361" y="-86" type="line"/>
      <point x="251" y="-86" type="line"/>
      <point x="251" y="0" type="line"/>
      <point x="218" y="0" type="line" smooth="yes"/>
      <point x="179" y="0"/>
      <point x="112" y="36"/>
      <point x="62" y="95"/>
      <point x="33" y="168"/>
      <point x="32" y="204" type="qcurve"/>
      <point x="155" y="204" type="line"/>
      <point x="155" y="200" type="line" smooth="yes"/>
      <point x="155" y="181"/>
      <point x="180" y="142"/>
      <point x="201" y="130" type="qcurve"/>
      <point x="206" y="128"/>
      <point x="217" y="124"/>
      <point x="222" y="123" type="qcurve"/>
      <point x="249" y="123" type="line"/>
      <point x="249" y="291" type="line"/>
      <point x="190" y="292" type="line"/>
      <point x="163" y="292"/>
      <point x="133" y="305" type="qcurve"/>
      <point x="104" y="319"/>
      <point x="54" y="371"/>
      <point x="32" y="433"/>
      <point x="32" y="456" type="qcurve" smooth="yes"/>
      <point x="32" y="491" type="line" smooth="yes"/>
      <point x="32" y="555"/>
      <point x="101" y="656"/>
      <point x="158" y="680" type="qcurve" smooth="yes"/>
      <point x="174" y="687"/>
      <point x="207" y="695"/>
      <point x="224" y="696" type="qcurve"/>
      <point x="254" y="700" type="line"/>
      <point x="254" y="782" type="line"/>
      <point x="363" y="782" type="line"/>
      <point x="363" y="696" type="line"/>
      <point x="436" y="696" type="line"/>
      <point x="436" y="782" type="line"/>
      <point x="550" y="782" type="line"/>
      <point x="549" y="696" type="line"/>
      <point x="579" y="696" type="line" smooth="yes"/>
      <point x="618" y="696"/>
      <point x="685" y="660"/>
      <point x="735" y="601"/>
      <point x="764" y="528"/>
      <point x="765" y="492" type="qcurve"/>
      <point x="642" y="492" type="line"/>
      <point x="642" y="496" type="line" smooth="yes"/>
      <point x="642" y="515"/>
      <point x="617" y="554"/>
      <point x="596" y="566" type="qcurve"/>
      <point x="591" y="568"/>
      <point x="580" y="572"/>
      <point x="575" y="573" type="qcurve"/>
      <point x="548" y="573" type="line"/>
      <point x="548" y="417" type="line"/>
      <point x="607" y="416" type="line"/>
      <point x="634" y="416"/>
    </contour>
    <contour>
      <point x="553" y="291" type="line"/>
      <point x="553" y="123" type="line"/>
      <point x="581" y="123" type="line"/>
      <point x="581" y="125" type="line"/>
      <point x="588" y="127"/>
      <point x="594" y="130" type="qcurve"/>
      <point x="613" y="134"/>
      <point x="642" y="171"/>
      <point x="645" y="191" type="qcurve"/>
      <point x="646" y="212" type="line"/>
      <point x="643" y="243"/>
      <point x="635" y="257"/>
      <point x="609" y="286"/>
      <point x="589" y="291" type="qcurve"/>
    </contour>
    <contour>
      <point x="249" y="415" type="line"/>
      <point x="249" y="573" type="line"/>
      <point x="216" y="573" type="line"/>
      <point x="216" y="571" type="line"/>
      <point x="209" y="569"/>
      <point x="203" y="566" type="qcurve"/>
      <point x="184" y="562"/>
      <point x="155" y="525"/>
      <point x="152" y="505" type="qcurve"/>
      <point x="151" y="484" type="line"/>
      <point x="154" y="453"/>
      <point x="162" y="439"/>
      <point x="188" y="420"/>
      <point x="208" y="415" type="qcurve"/>
    </contour>
    <contour>
      <point x="434" y="291" type="line"/>
      <point x="361" y="291" type="line"/>
      <point x="361" y="123" type="line"/>
      <point x="434" y="123" type="line"/>
    </contour>
    <contour>
      <point x="363" y="415" type="line"/>
      <point x="436" y="415" type="line"/>
      <point x="436" y="573" type="line"/>
      <point x="363" y="573" type="line"/>
    </contour>
  </outline>
</glyph>
<glyph name="percent" format="2">
  <advance width="826"/>
  <unicode hex="0025"/>
  <outline>
    <contour>
      <point x="542" y="696" type="line"/>
      <point x="354" y="0" type="line"/>
      <point x="282" y="0" type="line"/>
      <point x="463" y="696" type="line"/>
    </contour>
    <contour>
      <point x="351" y="412" type="line" smooth="yes"/>
      <point x="351" y="391"/>
      <point x="332" y="355"/>
      <point x="302" y="328"/>
      <point x="264" y="312"/>
      <point x="245" y="312" type="qcurve" smooth="yes"/>
      <point x="121" y="312" type="line" smooth="yes"/>
      <point x="100" y="312"/>
      <point x="64" y="331"/>
      <point x="37" y="362"/>
      <point x="22" y="402"/>
      <point x="22" y="422" type="qcurve" smooth="yes"/>
      <point x="22" y="595" type="line" smooth="yes"/>
      <point x="22" y="613"/>
      <point x="39" y="649"/>
      <point x="68" y="678"/>
      <point x="103" y="696"/>
      <point x="121" y="696" type="qcurve" smooth="yes"/>
      <point x="253" y="696" type="line" smooth="yes"/>
      <point x="274" y="696"/>
      <point x="309" y="676"/>
      <point x="336" y="645"/>
      <point x="351" y="605"/>
      <point x="351" y="585" type="qcurve" smooth="yes"/>
    </contour>
    <contour>
      <point x="271" y="585" type="line" smooth="yes"/>
      <point x="271" y="596"/>
      <point x="258" y="613"/>
      <point x="248" y="613" type="qcurve" smooth="yes"/>
      <point x="232" y="613" type="line"/>
      <point x="232" y="393" type="line"/>
      <point x="248" y="393" type="line" smooth="yes"/>
      <point x="256" y="393"/>
      <point x="271" y="409"/>
      <point x="271" y="418" type="qcurve" smooth="yes"/>
    </contour>
    <contour>
      <point x="804" y="100" type="line" smooth="yes"/>
      <point x="804" y="79"/>
      <point x="785" y="43"/>
      <point x="755" y="16"/>
      <point x="717" y="0"/>
      <point x="698" y="0" type="qcurve" smooth="yes"/>
      <point x="574" y="0" type="line" smooth="yes"/>
      <point x="553" y="0"/>
      <point x="517" y="19"/>
      <point x="490" y="50"/>
      <point x="475" y="90"/>
      <point x="475" y="110" type="qcurve" smooth="yes"/>
      <point x="475" y="283" type="line" smooth="yes"/>
      <point x="475" y="301"/>
      <point x="492" y="337"/>
      <point x="521" y="366"/>
      <point x="556" y="384"/>
      <point x="574" y="384" type="qcurve" smooth="yes"/>
      <point x="706" y="384" type="line" smooth="yes"/>
      <point x="727" y="384"/>
      <point x="762" y="364"/>
      <point x="789" y="333"/>
      <point x="804" y="293"/>
      <point x="804" y="273" type="qcurve" smooth="yes"/>
    </contour>
    <contour>
      <point x="724" y="273" type="line" smooth="yes"/>
      <point x="724" y="284"/>
      <point x="711" y="301"/>
      <point x="701" y="301" type="qcurve" smooth="yes"/>
      <point x="685" y="301" type="line"/>
      <point x="685" y="81" type="line"/>
      <point x="701" y="81" type="line" smooth="yes"/>
      <point x="709" y="81"/>
      <point x="724" y="97"/>
      <point x="724" y="106" type="qcurve" smooth="yes"/>
    </contour>
  </outline>
</glyph>
<glyph name="ampersand" format="2">
  <advance width="709"/>
  <unicode hex="0026"/>
  <outline>
    <contour>
      <point x="632" y="122" type="qcurve"/>
      <point x="618" y="85"/>
      <point x="569" y="29"/>
      <point x="501" y="0"/>
      <point x="458" y="0" type="qcurve"/>
      <point x="439" y="-1"/>
      <point x="346" y="0" type="qcurve"/>
      <point x="215" y="0" type="line" smooth="yes"/>
      <point x="175" y="0"/>
      <point x="105" y="30"/>
      <point x="52" y="83"/>
      <point x="22" y="153"/>
      <point x="22" y="193" type="qcurve" smooth="yes"/>
      <point x="22" y="210"/>
      <point x="21" y="226"/>
      <point x="21" y="227" type="qcurve"/>
      <point x="21" y="239"/>
      <point x="26" y="256" type="qcurve"/>
      <point x="30" y="274"/>
      <point x="52" y="307"/>
      <point x="82" y="333"/>
      <point x="99" y="340" type="qcurve" smooth="yes"/>
      <point x="113" y="346"/>
      <point x="127" y="348" type="qcurve"/>
      <point x="110" y="350"/>
      <point x="93" y="358" type="qcurve" smooth="yes"/>
      <point x="73" y="367"/>
      <point x="41" y="397"/>
      <point x="22" y="439"/>
      <point x="22" y="465" type="qcurve" smooth="yes"/>
      <point x="22" y="511" type="line" smooth="yes"/>
      <point x="22" y="535"/>
      <point x="29" y="556" type="qcurve" smooth="yes"/>
      <point x="38" y="587"/>
      <point x="74" y="639"/>
      <point x="123" y="676"/>
      <point x="182" y="696"/>
      <point x="215" y="696" type="qcurve" smooth="yes"/>
      <point x="441" y="696"/>
      <point x="460" y="695" type="qcurve"/>
      <point x="503" y="695"/>
      <point x="571" y="666"/>
      <point x="620" y="610"/>
      <point x="648" y="537"/>
      <point x="650" y="497" type="qcurve"/>
      <point x="527" y="497" type="line"/>
      <point x="527" y="499" type="line"/>
      <point x="527" y="512"/>
      <point x="513" y="539"/>
      <point x="492" y="560"/>
      <point x="465" y="573"/>
      <point x="452" y="573" type="qcurve" smooth="yes"/>
      <point x="379" y="573" type="line"/>
      <point x="379" y="410" type="line"/>
      <point x="526" y="410" type="line"/>
      <point x="526" y="414" type="line"/>
      <point x="525" y="425"/>
      <point x="525" y="432" type="qcurve" smooth="yes"/>
      <point x="525" y="439" type="line"/>
      <point x="649" y="439" type="line"/>
      <point x="649" y="410" type="line"/>
      <point x="689" y="410" type="line"/>
      <point x="689" y="286" type="line"/>
      <point x="650" y="286" type="line"/>
      <point x="650" y="186" type="line"/>
      <point x="646" y="152"/>
    </contour>
    <contour>
      <point x="379" y="123" type="line"/>
      <point x="408" y="122" type="line"/>
      <point x="450" y="122" type="line" smooth="yes"/>
      <point x="463" y="122"/>
      <point x="490" y="135"/>
      <point x="511" y="156"/>
      <point x="525" y="183"/>
      <point x="526" y="196" type="qcurve"/>
      <point x="526" y="198" type="line"/>
      <point x="526" y="282"/>
      <point x="526" y="286" type="qcurve"/>
      <point x="379" y="286" type="line"/>
    </contour>
  </outline>
</glyph>
<glyph name="quotesingle" format="2">
  <advance width="262"/>
  <unicode hex="0027"/>
  <outline>
    <contour>
      <point x="242" y="694" type="line"/>
      <point x="176" y="415" type="line"/>
      <point x="51" y="415" type="line"/>
      <point x="17" y="694" type="line"/>
    </contour>
  </outline>
</glyph>
<glyph name="parenleft" format="2">
  <advance width="420"/>
  <unicode hex="0028"/>
  <outline>
    <contour>
      <point x="375" y="855" type="line"/>
      <point x="375" y="732" type="line"/>
      <point x="286" y="732" type="line"/>
      <point x="286" y="-43" type="line"/>
      <point x="375" y="-43" type="line"/>
      <point x="375" y="-166" type="line"/>
      <point x="146" y="-166" type="line" smooth="yes"/>
      <point x="104" y="-166"/>
      <point x="30" y="-134"/>
      <point x="-26" y="-78"/>
      <point x="-58" y="-4"/>
      <point x="-58" y="38" type="qcurve" smooth="yes"/>
      <point x="-58" y="651" type="line" smooth="yes"/>
      <point x="-58" y="693"/>
      <point x="-26" y="767"/>
      <point x="30" y="823"/>
      <point x="104" y="855"/>
      <point x="146" y="855" type="qcurve" smooth="yes"/>
    </contour>
  </outline>
</glyph>
<glyph name="parenright" format="2">
  <advance width="478"/>
  <unicode hex="0029"/>
  <outline>
    <contour>
      <point x="248" y="855" type="line" smooth="yes"/>
      <point x="290" y="855"/>
      <point x="364" y="823"/>
      <point x="420" y="767"/>
      <point x="452" y="693"/>
      <point x="452" y="651" type="qcurve" smooth="yes"/>
      <point x="452" y="38" type="line" smooth="yes"/>
      <point x="452" y="-4"/>
      <point x="420" y="-78"/>
      <point x="364" y="-134"/>
      <point x="290" y="-166"/>
      <point x="248" y="-166" type="qcurve" smooth="yes"/>
      <point x="19" y="-166" type="line"/>
      <point x="19" y="-43" type="line"/>
      <point x="108" y="-43" type="line"/>
      <point x="108" y="732" type="line"/>
      <point x="19" y="732" type="line"/>
      <point x="19" y="855" type="line"/>
    </contour>
  </outline>
</glyph>
<glyph name="plus" format="2">
  <advance width="468"/>
  <unicode hex="002B"/>
  <outline>
    <contour>
      <point x="278" y="105" type="line"/>
      <point x="184" y="105" type="line"/>
      <point x="184" y="283" type="line"/>
      <point x="17" y="283" type="line"/>
      <point x="17" y="376" type="line"/>
      <point x="184" y="376" type="line"/>
      <point x="184" y="549" type="line"/>
      <point x="278" y="549" type="line"/>
      <point x="278" y="376" type="line"/>
      <point x="450" y="376" type="line"/>
      <point x="450" y="283" type="line"/>
      <point x="278" y="283" type="line"/>
    </contour>
  </outline>
</glyph>
<glyph name="comma" format="2">
  <advance width="181"/>
  <unicode hex="002C"/>
  <outline>
    <contour>
      <point x="37" y="112" type="line"/>
      <point x="165" y="112" type="line"/>
      <point x="165" y="0" type="line"/>
      <point x="37" y="-75" type="line"/>
    </contour>
  </outline>
</glyph>
<glyph name="hyphen" format="2">
  <advance width="534"/>
  <unicode hex="002D"/>
  <outline>
    <contour>
      <point x="514" y="389" type="line"/>
      <point x="514" y="292" type="line"/>
      <point x="18" y="292" type="line"/>
      <point x="18" y="389" type="line"/>
    </contour>
  </outline>
</glyph>
<glyph name="period" format="2">
  <advance width="215"/>
  <unicode hex="002E"/>
  <outline>
    <contour>
      <point x="191" y="169" type="line"/>
      <point x="191" y="0" type="line"/>
      <point x="26" y="0" type="line"/>
      <point x="26" y="169" type="line"/>
    </contour>
  </outline>
</glyph>
<glyph name="slash" format="2">
  <advance width="345"/>
  <unicode hex="002F"/>
  <outline>
    <contour>
      <point x="322" y="763" type="line"/>
      <point x="126" y="-71" type="line"/>
      <point x="42" y="-71" type="line"/>
      <point x="237" y="763" type="line"/>
    </contour>
  </outline>
</glyph>
<glyph name="one" format="2">
  <advance width="556"/>
  <unicode hex="0031"/>
  <outline>
    <contour>
      <point x="201" y="696" type="line"/>
      <point x="529" y="696" type="line"/>
      <point x="529" y="0" type="line"/>
      <point x="201" y="0" type="line"/>
      <point x="201" y="524" type="line"/>
      <point x="162" y="479" type="line"/>
      <point x="16" y="479" type="line"/>
    </contour>
  </outline>
</glyph>
<glyph name="two" format="2">
  <advance width="689"/>
  <unicode hex="0032"/>
  <outline>
    <contour>
      <point x="465" y="696" type="line" smooth="yes"/>
      <point x="498" y="696"/>
      <point x="564" y="663"/>
      <point x="618" y="609"/>
      <point x="651" y="543"/>
      <point x="651" y="510" type="qcurve"/>
      <point x="652" y="368" type="line"/>
      <point x="652" y="347"/>
      <point x="634" y="303"/>
      <point x="604" y="268"/>
      <point x="563" y="246"/>
      <point x="540" y="246" type="qcurve" smooth="yes"/>
      <point x="184" y="246" type="line" smooth="yes"/>
      <point x="158" y="246"/>
      <point x="143" y="209"/>
      <point x="143" y="187" type="qcurve" smooth="yes"/>
      <point x="143" y="160" type="line" smooth="yes"/>
      <point x="143" y="150"/>
      <point x="165" y="123"/>
      <point x="177" y="123" type="qcurve" smooth="yes"/>
      <point x="652" y="123" type="line"/>
      <point x="652" y="0" type="line"/>
      <point x="20" y="0" type="line"/>
      <point x="20" y="246" type="line" smooth="yes"/>
      <point x="20" y="268"/>
      <point x="38" y="311"/>
      <point x="68" y="346"/>
      <point x="109" y="368"/>
      <point x="132" y="368" type="qcurve" smooth="yes"/>
      <point x="283" y="368" type="line"/>
      <point x="283" y="573" type="line"/>
      <point x="218" y="573" type="line" smooth="yes"/>
      <point x="192" y="573"/>
      <point x="162" y="549"/>
      <point x="147" y="513"/>
      <point x="143" y="470"/>
      <point x="143" y="451" type="qcurve"/>
      <point x="20" y="451" type="line"/>
      <point x="20" y="492" type="line" smooth="yes"/>
      <point x="20" y="528"/>
      <point x="49" y="601"/>
      <point x="100" y="660"/>
      <point x="168" y="696"/>
      <point x="207" y="696" type="qcurve" smooth="yes"/>
    </contour>
  </outline>
</glyph>
<glyph name="three" format="2">
  <advance width="670"/>
  <unicode hex="0033"/>
  <outline>
    <contour>
      <point x="448" y="697" type="line" smooth="yes"/>
      <point x="500" y="697"/>
      <point x="573" y="659"/>
      <point x="620" y="595"/>
      <point x="642" y="511"/>
      <point x="642" y="465" type="qcurve" smooth="yes"/>
      <point x="642" y="440"/>
      <point x="623" y="398"/>
      <point x="592" y="367"/>
      <point x="549" y="349"/>
      <point x="525" y="348" type="qcurve"/>
      <point x="530" y="348" type="line" smooth="yes"/>
      <point x="563" y="348"/>
      <point x="606" y="322"/>
      <point x="632" y="278"/>
      <point x="642" y="223"/>
      <point x="642" y="194" type="qcurve" smooth="yes"/>
      <point x="642" y="155"/>
      <point x="611" y="84"/>
      <point x="558" y="31"/>
      <point x="487" y="0"/>
      <point x="448" y="0" type="qcurve" smooth="yes"/>
      <point x="220" y="0" type="line" smooth="yes"/>
      <point x="166" y="0"/>
      <point x="88" y="41"/>
      <point x="38" y="109"/>
      <point x="15" y="195"/>
      <point x="15" y="239" type="qcurve" smooth="yes"/>
      <point x="15" y="246" type="line"/>
      <point x="138" y="246" type="line"/>
      <point x="138" y="228"/>
      <point x="142" y="185"/>
      <point x="158" y="148"/>
      <point x="187" y="123"/>
      <point x="213" y="123" type="qcurve" smooth="yes"/>
      <point x="284" y="123" type="line"/>
      <point x="284" y="287" type="line"/>
      <point x="202" y="287" type="line"/>
      <point x="202" y="411" type="line"/>
      <point x="284" y="411" type="line"/>
      <point x="284" y="574" type="line"/>
      <point x="220" y="574" type="line" smooth="yes"/>
      <point x="192" y="574"/>
      <point x="159" y="552"/>
      <point x="143" y="517"/>
      <point x="138" y="473"/>
      <point x="138" y="451" type="qcurve"/>
      <point x="15" y="451" type="line"/>
      <point x="15" y="492" type="line" smooth="yes"/>
      <point x="15" y="534"/>
      <point x="48" y="609"/>
      <point x="103" y="664"/>
      <point x="178" y="697"/>
      <point x="220" y="697" type="qcurve" smooth="yes"/>
    </contour>
  </outline>
</glyph>
<glyph name="four" format="2">
  <advance width="717"/>
  <unicode hex="0034"/>
  <outline>
    <contour>
      <point x="205" y="430" type="line"/>
      <point x="308" y="430" type="line"/>
      <point x="308" y="527" type="line"/>
    </contour>
    <contour>
      <point x="636" y="430" type="line"/>
      <point x="688" y="430" type="line"/>
      <point x="688" y="306" type="line"/>
      <point x="636" y="306" type="line"/>
      <point x="636" y="0" type="line"/>
      <point x="308" y="0" type="line"/>
      <point x="308" y="306" type="line"/>
      <point x="31" y="306" type="line"/>
      <point x="31" y="429" type="line"/>
      <point x="308" y="696" type="line"/>
      <point x="636" y="696" type="line"/>
    </contour>
  </outline>
</glyph>
<glyph name="five" format="2">
  <advance width="689"/>
  <unicode hex="0035"/>
  <outline>
    <contour>
      <point x="207" y="0" type="line" smooth="yes"/>
      <point x="168" y="0"/>
      <point x="100" y="36"/>
      <point x="49" y="95"/>
      <point x="20" y="168"/>
      <point x="20" y="204" type="qcurve" smooth="yes"/>
      <point x="20" y="245" type="line"/>
      <point x="143" y="245" type="line"/>
      <point x="143" y="226"/>
      <point x="147" y="183"/>
      <point x="162" y="147"/>
      <point x="192" y="123"/>
      <point x="218" y="123" type="qcurve" smooth="yes"/>
      <point x="283" y="123" type="line"/>
      <point x="283" y="328" type="line"/>
      <point x="20" y="328" type="line"/>
      <point x="20" y="696" type="line"/>
      <point x="652" y="696" type="line"/>
      <point x="652" y="573" type="line"/>
      <point x="242" y="573" type="line"/>
      <point x="242" y="450" type="line"/>
      <point x="413" y="450" type="line"/>
      <point x="413" y="449" type="line"/>
      <point x="450" y="449" type="line" smooth="yes"/>
      <point x="492" y="449"/>
      <point x="564" y="411"/>
      <point x="617" y="347"/>
      <point x="648" y="268"/>
      <point x="648" y="229" type="qcurve" smooth="yes"/>
      <point x="648" y="180"/>
      <point x="616" y="92"/>
      <point x="559" y="33"/>
      <point x="479" y="1"/>
      <point x="430" y="0" type="qcurve"/>
    </contour>
  </outline>
</glyph>
<glyph name="six" format="2">
  <advance width="704"/>
  <unicode hex="0036"/>
  <outline>
    <contour>
      <point x="661" y="326" type="qcurve" smooth="yes"/>
      <point x="678" y="288"/>
      <point x="678" y="246" type="qcurve" smooth="yes"/>
      <point x="678" y="205" type="line" smooth="yes"/>
      <point x="678" y="163"/>
      <point x="645" y="88"/>
      <point x="590" y="33"/>
      <point x="515" y="0"/>
      <point x="473" y="0" type="qcurve"/>
      <point x="204" y="1" type="line"/>
      <point x="165" y="1"/>
      <point x="97" y="37"/>
      <point x="46" y="96"/>
      <point x="17" y="169"/>
      <point x="17" y="205" type="qcurve" smooth="yes"/>
      <point x="17" y="510" type="line" smooth="yes"/>
      <point x="17" y="543"/>
      <point x="50" y="610"/>
      <point x="104" y="663"/>
      <point x="170" y="696"/>
      <point x="203" y="696" type="qcurve" smooth="yes"/>
      <point x="473" y="696" type="line" smooth="yes"/>
      <point x="516" y="696"/>
      <point x="591" y="664"/>
      <point x="645" y="609"/>
      <point x="677" y="534"/>
      <point x="678" y="492" type="qcurve"/>
      <point x="555" y="492" type="line"/>
      <point x="555" y="500" type="line" smooth="yes"/>
      <point x="555" y="533"/>
      <point x="510" y="568"/>
      <point x="475" y="573" type="qcurve" smooth="yes"/>
      <point x="452" y="576"/>
      <point x="423" y="577"/>
      <point x="417" y="577" type="qcurve" smooth="yes"/>
      <point x="386" y="577" type="line"/>
      <point x="386" y="451" type="line"/>
      <point x="480" y="451" type="line"/>
      <point x="518" y="449"/>
      <point x="552" y="434" type="qcurve" smooth="yes"/>
      <point x="590" y="418"/>
      <point x="645" y="363"/>
    </contour>
    <contour>
      <point x="386" y="328" type="line"/>
      <point x="386" y="123" type="line"/>
      <point x="480" y="123" type="line" smooth="yes"/>
      <point x="493" y="123"/>
      <point x="520" y="137"/>
      <point x="542" y="158"/>
      <point x="555" y="185"/>
      <point x="555" y="198" type="qcurve" smooth="yes"/>
      <point x="555" y="253" type="line" smooth="yes"/>
      <point x="555" y="266"/>
      <point x="542" y="293"/>
      <point x="520" y="314"/>
      <point x="493" y="328"/>
      <point x="480" y="328" type="qcurve" smooth="yes"/>
    </contour>
  </outline>
</glyph>
<glyph name="eight" format="2">
  <advance width="694"/>
  <unicode hex="0038"/>
  <outline>
    <contour>
      <point x="467" y="697" type="line"/>
      <point x="511" y="697"/>
      <point x="581" y="663"/>
      <point x="630" y="606"/>
      <point x="657" y="530"/>
      <point x="657" y="488" type="qcurve" smooth="yes"/>
      <point x="657" y="467"/>
      <point x="639" y="416"/>
      <point x="623" y="395" type="qcurve"/>
      <point x="608" y="373"/>
      <point x="569" y="348"/>
      <point x="550" y="348" type="qcurve" smooth="yes"/>
      <point x="546" y="348" type="line"/>
      <point x="565" y="345"/>
      <point x="584" y="334" type="qcurve" smooth="yes"/>
      <point x="615" y="317"/>
      <point x="657" y="249"/>
      <point x="657" y="209" type="qcurve" smooth="yes"/>
      <point x="657" y="168"/>
      <point x="630" y="93"/>
      <point x="580" y="35"/>
      <point x="509" y="0"/>
      <point x="464" y="0" type="qcurve" smooth="yes"/>
      <point x="215" y="0" type="line" smooth="yes"/>
      <point x="175" y="0"/>
      <point x="105" y="30"/>
      <point x="52" y="83"/>
      <point x="22" y="153"/>
      <point x="22" y="193" type="qcurve" smooth="yes"/>
      <point x="22" y="210"/>
      <point x="21" y="226"/>
      <point x="21" y="227" type="qcurve"/>
      <point x="21" y="239"/>
      <point x="26" y="256" type="qcurve"/>
      <point x="30" y="274"/>
      <point x="52" y="307"/>
      <point x="82" y="333"/>
      <point x="117" y="348"/>
      <point x="133" y="348" type="qcurve" smooth="yes"/>
      <point x="137" y="348" type="line"/>
      <point x="115" y="349"/>
      <point x="73" y="367"/>
      <point x="41" y="397"/>
      <point x="22" y="439"/>
      <point x="22" y="465" type="qcurve" smooth="yes"/>
      <point x="22" y="511" type="line" smooth="yes"/>
      <point x="22" y="535"/>
      <point x="29" y="556" type="qcurve" smooth="yes"/>
      <point x="38" y="587"/>
      <point x="74" y="639"/>
      <point x="123" y="676"/>
      <point x="182" y="696"/>
      <point x="215" y="696" type="qcurve"/>
    </contour>
    <contour>
      <point x="534" y="499" type="qcurve" smooth="yes"/>
      <point x="534" y="512"/>
      <point x="520" y="539"/>
      <point x="499" y="560"/>
      <point x="472" y="573"/>
      <point x="459" y="573" type="qcurve" smooth="yes"/>
      <point x="433" y="573" type="line"/>
      <point x="433" y="410" type="line"/>
      <point x="460" y="410" type="line" smooth="yes"/>
      <point x="476" y="410"/>
      <point x="503" y="425"/>
      <point x="523" y="451"/>
      <point x="534" y="482"/>
    </contour>
    <contour>
      <point x="459" y="123" type="line" smooth="yes"/>
      <point x="474" y="123"/>
      <point x="501" y="137"/>
      <point x="522" y="160"/>
      <point x="534" y="189"/>
      <point x="534" y="204" type="qcurve" smooth="yes"/>
      <point x="534" y="237"/>
      <point x="486" y="286"/>
      <point x="453" y="286" type="qcurve" smooth="yes"/>
      <point x="433" y="286" type="line"/>
      <point x="433" y="123" type="line"/>
    </contour>
  </outline>
</glyph>
<glyph name="nine" format="2">
  <advance width="681"/>
  <unicode hex="0039"/>
  <outline>
    <contour>
      <point x="21" y="487" type="line"/>
      <point x="24" y="533"/>
      <point x="57" y="607"/>
      <point x="113" y="663"/>
      <point x="187" y="696"/>
      <point x="229" y="696" type="qcurve" smooth="yes"/>
      <point x="452" y="696" type="line"/>
      <point x="490" y="695"/>
      <point x="558" y="658"/>
      <point x="609" y="600"/>
      <point x="638" y="527"/>
      <point x="638" y="491" type="qcurve" smooth="yes"/>
      <point x="638" y="204" type="line" smooth="yes"/>
      <point x="638" y="168"/>
      <point x="609" y="95"/>
      <point x="558" y="36"/>
      <point x="491" y="0"/>
      <point x="452" y="0" type="qcurve"/>
      <point x="229" y="-1" type="line"/>
      <point x="174" y="-1"/>
      <point x="96" y="40"/>
      <point x="47" y="108"/>
      <point x="24" y="193"/>
      <point x="24" y="237" type="qcurve" smooth="yes"/>
      <point x="24" y="245" type="line"/>
      <point x="352" y="245" type="line"/>
      <point x="352" y="122" type="line"/>
      <point x="441" y="122" type="line" smooth="yes"/>
      <point x="454" y="122"/>
      <point x="480" y="136"/>
      <point x="501" y="157"/>
      <point x="515" y="183"/>
      <point x="515" y="196" type="qcurve" smooth="yes"/>
      <point x="515" y="286" type="line"/>
      <point x="294" y="285" type="line"/>
      <point x="208" y="285" type="line" smooth="yes"/>
      <point x="173" y="285"/>
      <point x="105" y="318"/>
      <point x="55" y="366"/>
      <point x="22" y="437"/>
      <point x="22" y="471" type="qcurve"/>
    </contour>
    <contour>
      <point x="352" y="572" type="line"/>
      <point x="352" y="409" type="line"/>
      <point x="515" y="409" type="line"/>
      <point x="515" y="498" type="line" smooth="yes"/>
      <point x="515" y="511"/>
      <point x="501" y="537"/>
      <point x="480" y="558"/>
      <point x="454" y="572"/>
      <point x="441" y="572" type="qcurve" smooth="yes"/>
    </contour>
  </outline>
</glyph>
<glyph name="colon" format="2">
  <advance width="212"/>
  <unicode hex="003A"/>
  <outline>
    <contour>
      <point x="45" y="562" type="qcurve" smooth="yes"/>
      <point x="45" y="591"/>
      <point x="83" y="630"/>
      <point x="112" y="630" type="qcurve" smooth="yes"/>
      <point x="141" y="630"/>
      <point x="180" y="591"/>
      <point x="180" y="562" type="qcurve" smooth="yes"/>
      <point x="180" y="533"/>
      <point x="141" y="495"/>
      <point x="112" y="495" type="qcurve" smooth="yes"/>
      <point x="83" y="495"/>
      <point x="45" y="533"/>
    </contour>
    <contour>
      <point x="45" y="137" type="qcurve" smooth="yes"/>
      <point x="45" y="166"/>
      <point x="83" y="205"/>
      <point x="112" y="205" type="qcurve" smooth="yes"/>
      <point x="141" y="205"/>
      <point x="180" y="166"/>
      <point x="180" y="137" type="qcurve" smooth="yes"/>
      <point x="180" y="108"/>
      <point x="141" y="70"/>
      <point x="112" y="70" type="qcurve" smooth="yes"/>
      <point x="83" y="70"/>
      <point x="45" y="108"/>
    </contour>
  </outline>
</glyph>
<glyph name="semicolon" format="2">
  <advance width="238"/>
  <unicode hex="003B"/>
  <outline>
    <contour>
      <point x="51" y="112" type="line"/>
      <point x="179" y="112" type="line"/>
      <point x="179" y="0" type="line"/>
      <point x="51" y="-75" type="line"/>
    </contour>
    <contour>
      <point x="45" y="562" type="qcurve" smooth="yes"/>
      <point x="45" y="591"/>
      <point x="83" y="630"/>
      <point x="112" y="630" type="qcurve" smooth="yes"/>
      <point x="141" y="630"/>
      <point x="180" y="591"/>
      <point x="180" y="562" type="qcurve" smooth="yes"/>
      <point x="180" y="533"/>
      <point x="141" y="495"/>
      <point x="112" y="495" type="qcurve" smooth="yes"/>
      <point x="83" y="495"/>
      <point x="45" y="533"/>
    </contour>
  </outline>
</glyph>
<glyph name="equal" format="2">
  <advance width="832"/>
  <unicode hex="003D"/>
  <outline>
    <contour>
      <point x="808" y="498" type="line"/>
      <point x="808" y="419" type="line"/>
      <point x="27" y="419" type="line"/>
      <point x="27" y="498" type="line"/>
    </contour>
    <contour>
      <point x="808" y="284" type="line"/>
      <point x="808" y="205" type="line"/>
      <point x="27" y="205" type="line"/>
      <point x="27" y="284" type="line"/>
    </contour>
  </outline>
</glyph>
<glyph name="greater" format="2">
  <advance width="422"/>
  <unicode hex="003E"/>
  <outline>
    <contour>
      <point x="34" y="160" type="line"/>
      <point x="258" y="332" type="line"/>
      <point x="34" y="504" type="line"/>
      <point x="103" y="605" type="line"/>
      <point x="394" y="382" type="line"/>
      <point x="394" y="278" type="line"/>
      <point x="103" y="59" type="line"/>
    </contour>
  </outline>
</glyph>
<glyph name="question" format="2">
  <advance width="729"/>
  <unicode hex="003F"/>
  <outline>
    <contour>
      <point x="200" y="570" type="qcurve" smooth="yes"/>
      <point x="181" y="566"/>
      <point x="154" y="540"/>
      <point x="140" y="490"/>
      <point x="140" y="449" type="qcurve"/>
      <point x="17" y="449" type="line"/>
      <point x="17" y="490" type="line" smooth="yes"/>
      <point x="17" y="532"/>
      <point x="49" y="606"/>
      <point x="105" y="661"/>
      <point x="179" y="694"/>
      <point x="221" y="694" type="qcurve"/>
      <point x="525" y="693" type="line"/>
      <point x="558" y="693"/>
      <point x="624" y="660"/>
      <point x="677" y="608"/>
      <point x="710" y="541"/>
      <point x="710" y="508" type="qcurve"/>
      <point x="711" y="368" type="line"/>
      <point x="711" y="324"/>
      <point x="677" y="275"/>
      <point x="623" y="251"/>
      <point x="556" y="245"/>
      <point x="523" y="245" type="qcurve"/>
      <point x="523" y="158" type="line"/>
      <point x="229" y="158" type="line"/>
      <point x="229" y="574" type="line"/>
      <point x="213" y="573"/>
    </contour>
    <contour>
      <point x="523" y="123" type="line"/>
      <point x="523" y="0" type="line"/>
      <point x="229" y="0" type="line"/>
      <point x="229" y="123" type="line"/>
    </contour>
  </outline>
</glyph>
<glyph name="at" format="2">
  <advance width="742"/>
  <unicode hex="0040"/>
  <outline>
    <contour>
      <point x="366" y="631" type="qcurve" smooth="yes"/>
      <point x="436" y="631"/>
      <point x="560" y="577"/>
      <point x="652" y="484"/>
      <point x="706" y="359"/>
      <point x="706" y="288" type="qcurve" smooth="yes"/>
      <point x="706" y="231"/>
      <point x="690" y="180" type="qcurve"/>
      <point x="690" y="179" type="line"/>
      <point x="689" y="178" type="line"/>
      <point x="689" y="176" type="line"/>
      <point x="688" y="175" type="line"/>
      <point x="688" y="174" type="line"/>
      <point x="687" y="171"/>
      <point x="685" y="167" type="qcurve" smooth="yes"/>
      <point x="683" y="161"/>
      <point x="677" y="146"/>
      <point x="653" y="105" type="qcurve"/>
      <point x="281" y="104" type="line"/>
      <point x="264" y="104"/>
      <point x="228" y="118"/>
      <point x="199" y="143"/>
      <point x="182" y="177"/>
      <point x="182" y="195" type="qcurve" smooth="yes"/>
      <point x="182" y="234" type="line" smooth="yes"/>
      <point x="182" y="252"/>
      <point x="196" y="287"/>
      <point x="221" y="316"/>
      <point x="254" y="334"/>
      <point x="272" y="334" type="qcurve" smooth="yes"/>
      <point x="332" y="334" type="line"/>
      <point x="332" y="423" type="line"/>
      <point x="182" y="423" type="line"/>
      <point x="181" y="484" type="line"/>
      <point x="498" y="484" type="line" smooth="yes"/>
      <point x="514" y="484"/>
      <point x="547" y="467"/>
      <point x="573" y="441"/>
      <point x="589" y="409"/>
      <point x="589" y="393" type="qcurve"/>
      <point x="590" y="139" type="line"/>
      <point x="622" y="139" type="line"/>
      <point x="652" y="189"/>
      <point x="663" y="261"/>
      <point x="663" y="288" type="qcurve" smooth="yes"/>
      <point x="663" y="349"/>
      <point x="616" y="458"/>
      <point x="536" y="540"/>
      <point x="427" y="587"/>
      <point x="366" y="587" type="qcurve" smooth="yes"/>
      <point x="304" y="587"/>
      <point x="196" y="540"/>
      <point x="114" y="458"/>
      <point x="67" y="349"/>
      <point x="67" y="288" type="qcurve" smooth="yes"/>
      <point x="67" y="226"/>
      <point x="114" y="118"/>
      <point x="196" y="38"/>
      <point x="304" y="-9"/>
      <point x="366" y="-9" type="qcurve" smooth="yes"/>
      <point x="415" y="-9"/>
      <point x="504" y="20"/>
      <point x="540" y="46" type="qcurve"/>
      <point x="619" y="49" type="line"/>
      <point x="546" y="-12"/>
      <point x="426" y="-52"/>
      <point x="366" y="-52" type="qcurve" smooth="yes"/>
      <point x="295" y="-52"/>
      <point x="170" y="2"/>
      <point x="77" y="94"/>
      <point x="23" y="218"/>
      <point x="23" y="288" type="qcurve" smooth="yes"/>
      <point x="23" y="359"/>
      <point x="77" y="484"/>
      <point x="170" y="577"/>
      <point x="295" y="631"/>
    </contour>
    <contour>
      <point x="242" y="200" type="line" smooth="yes"/>
      <point x="242" y="194"/>
      <point x="248" y="181"/>
      <point x="258" y="171"/>
      <point x="271" y="164"/>
      <point x="278" y="164" type="qcurve" smooth="yes"/>
      <point x="332" y="164" type="line"/>
      <point x="332" y="274" type="line"/>
      <point x="278" y="274" type="line" smooth="yes"/>
      <point x="271" y="274"/>
      <point x="257" y="267"/>
      <point x="248" y="256"/>
      <point x="242" y="241"/>
      <point x="242" y="234" type="qcurve" smooth="yes"/>
    </contour>
  </outline>
</glyph>
<glyph name="F" format="2">
  <advance width="552"/>
  <unicode hex="0046"/>
  <outline>
    <contour>
      <point x="360" y="420" type="line"/>
      <point x="520" y="420" type="line"/>
      <point x="520" y="305" type="line"/>
      <point x="360" y="305" type="line"/>
      <point x="360" y="0" type="line"/>
      <point x="33" y="0" type="line"/>
      <point x="33" y="697" type="line"/>
      <point x="519" y="697" type="line"/>
      <point x="519" y="574" type="line"/>
      <point x="360" y="574" type="line"/>
    </contour>
  </outline>
</glyph>
<glyph name="H" format="2">
  <advance width="717"/>
  <unicode hex="0048"/>
  <outline>
    <contour>
      <point x="563" y="256" type="line"/>
      <point x="563" y="697" type="line"/>
      <point x="686" y="697" type="line"/>
      <point x="686" y="0" type="line"/>
      <point x="563" y="0" type="line"/>
      <point x="563" y="142" type="line"/>
      <point x="401" y="142" type="line"/>
      <point x="401" y="0" type="line"/>
      <point x="32" y="0" type="line"/>
      <point x="32" y="697" type="line"/>
      <point x="401" y="697" type="line"/>
      <point x="401" y="256" type="line"/>
    </contour>
  </outline>
</glyph>
<glyph name="J" format="2">
  <advance width="477"/>
  <unicode hex="004A"/>
  <outline>
    <contour>
      <point x="441" y="697" type="line"/>
      <point x="441" y="205" type="line" smooth="yes"/>
      <point x="441" y="163"/>
      <point x="408" y="88"/>
      <point x="353" y="33"/>
      <point x="278" y="0"/>
      <point x="236" y="0" type="qcurve" smooth="yes"/>
      <point x="41" y="0" type="line"/>
      <point x="41" y="123" type="line"/>
      <point x="113" y="123" type="line"/>
      <point x="113" y="697" type="line"/>
    </contour>
  </outline>
</glyph>
<glyph name="M" format="2">
  <advance width="1038"/>
  <unicode hex="004D"/>
  <outline>
    <contour>
      <point x="397" y="696" type="line"/>
      <point x="516" y="531" type="line"/>
      <point x="635" y="696" type="line"/>
      <point x="1003" y="696" type="line"/>
      <point x="1003" y="0" type="line"/>
      <point x="635" y="0" type="line"/>
      <point x="635" y="525" type="line"/>
      <point x="517" y="357" type="line"/>
      <point x="517" y="354" type="line"/>
      <point x="397" y="525" type="line"/>
      <point x="397" y="0" type="line"/>
      <point x="29" y="0" type="line"/>
      <point x="29" y="696" type="line"/>
    </contour>
  </outline>
</glyph>
<glyph name="N" format="2">
  <advance width="742"/>
  <unicode hex="004E"/>
  <outline>
    <contour>
      <point x="413" y="697" type="line"/>
      <point x="575" y="420" type="line"/>
      <point x="575" y="697" type="line"/>
      <point x="698" y="697" type="line"/>
      <point x="698" y="0" type="line"/>
      <point x="575" y="0" type="line"/>
      <point x="575" y="172" type="line"/>
      <point x="413" y="446" type="line"/>
      <point x="413" y="0" type="line"/>
      <point x="44" y="0" type="line"/>
      <point x="44" y="697" type="line"/>
    </contour>
  </outline>
</glyph>
<glyph name="Q" format="2">
  <advance width="711"/>
  <unicode hex="0051"/>
  <outline>
    <contour>
      <point x="543" y="492" type="line" smooth="yes"/>
      <point x="543" y="507"/>
      <point x="531" y="536"/>
      <point x="511" y="559"/>
      <point x="484" y="573"/>
      <point x="469" y="573" type="qcurve" smooth="yes"/>
      <point x="392" y="573" type="line"/>
      <point x="392" y="123" type="line"/>
      <point x="421" y="123" type="line"/>
      <point x="499" y="3" type="line"/>
      <point x="480" y="0"/>
      <point x="462" y="0" type="qcurve"/>
      <point x="210" y="1" type="line"/>
      <point x="171" y="1"/>
      <point x="103" y="37"/>
      <point x="52" y="95"/>
      <point x="23" y="168"/>
      <point x="23" y="205" type="qcurve" smooth="yes"/>
      <point x="23" y="510" type="line" smooth="yes"/>
      <point x="23" y="543"/>
      <point x="57" y="609"/>
      <point x="110" y="663"/>
      <point x="177" y="696"/>
      <point x="210" y="696" type="qcurve" smooth="yes"/>
      <point x="480" y="696" type="line" smooth="yes"/>
      <point x="518" y="696"/>
      <point x="586" y="659"/>
      <point x="637" y="601"/>
      <point x="666" y="528"/>
      <point x="666" y="492" type="qcurve" smooth="yes"/>
      <point x="666" y="186" type="line" smooth="yes"/>
      <point x="666" y="148"/>
      <point x="648" y="114" type="qcurve" smooth="yes"/>
      <point x="643" y="105" type="line"/>
      <point x="544" y="257" type="line"/>
      <point x="543" y="256" type="line"/>
    </contour>
    <contour>
      <point x="518" y="258" type="line"/>
      <point x="406" y="184" type="line"/>
      <point x="526" y="0" type="line"/>
      <point x="686" y="0" type="line"/>
    </contour>
  </outline>
</glyph>
<glyph name="R" format="2">
  <advance width="645"/>
  <unicode hex="0052"/>
  <outline>
    <contour>
      <point x="390" y="287" type="line"/>
      <point x="390" y="0" type="line"/>
      <point x="21" y="0" type="line"/>
      <point x="21" y="696" type="line"/>
      <point x="427" y="696" type="line" smooth="yes"/>
      <point x="466" y="696"/>
      <point x="535" y="659"/>
      <point x="585" y="601"/>
      <point x="614" y="528"/>
      <point x="614" y="492" type="qcurve" smooth="yes"/>
      <point x="614" y="447"/>
      <point x="584" y="372"/>
      <point x="557" y="345" type="qcurve" smooth="yes"/>
      <point x="537" y="325"/>
      <point x="512" y="312" type="qcurve"/>
      <point x="631" y="0" type="line"/>
      <point x="521" y="0" type="line"/>
      <point x="407" y="287" type="line"/>
    </contour>
    <contour>
      <point x="491" y="492" type="qcurve" smooth="yes"/>
      <point x="491" y="507"/>
      <point x="479" y="536"/>
      <point x="458" y="559"/>
      <point x="432" y="573"/>
      <point x="417" y="573" type="qcurve" smooth="yes"/>
      <point x="390" y="573" type="line"/>
      <point x="390" y="409" type="line"/>
      <point x="409" y="409" type="line" smooth="yes"/>
      <point x="426" y="409"/>
      <point x="456" y="423"/>
      <point x="478" y="445"/>
      <point x="491" y="475"/>
    </contour>
  </outline>
</glyph>
<glyph name="S" format="2">
  <advance width="695"/>
  <unicode hex="0053"/>
  <outline>
    <contour>
      <point x="198" y="329" type="line"/>
      <point x="162" y="329"/>
      <point x="99" y="362"/>
      <point x="52" y="415"/>
      <point x="26" y="481"/>
      <point x="25" y="513" type="qcurve"/>
      <point x="26" y="545"/>
      <point x="53" y="611"/>
      <point x="100" y="664"/>
      <point x="162" y="696"/>
      <point x="198" y="696" type="qcurve" smooth="yes"/>
      <point x="477" y="696" type="line" smooth="yes"/>
      <point x="516" y="696"/>
      <point x="583" y="660"/>
      <point x="633" y="601"/>
      <point x="662" y="528"/>
      <point x="663" y="492" type="qcurve"/>
      <point x="540" y="492" type="line"/>
      <point x="540" y="496" type="line" smooth="yes"/>
      <point x="540" y="508"/>
      <point x="528" y="535"/>
      <point x="508" y="558"/>
      <point x="481" y="573"/>
      <point x="466" y="573" type="qcurve" smooth="yes"/>
      <point x="395" y="573" type="line"/>
      <point x="395" y="451" type="line"/>
      <point x="437" y="451" type="line"/>
      <point x="437" y="450" type="line"/>
      <point x="477" y="450" type="line" smooth="yes"/>
      <point x="516" y="450"/>
      <point x="583" y="414"/>
      <point x="633" y="355"/>
      <point x="662" y="282"/>
      <point x="663" y="242" type="qcurve"/>
      <point x="663" y="205" type="line" smooth="yes"/>
      <point x="663" y="163"/>
      <point x="631" y="88"/>
      <point x="575" y="32"/>
      <point x="500" y="0"/>
      <point x="458" y="0" type="qcurve"/>
      <point x="213" y="1" type="line"/>
      <point x="174" y="1"/>
      <point x="107" y="37"/>
      <point x="56" y="96"/>
      <point x="27" y="169"/>
      <point x="27" y="205" type="qcurve" smooth="yes"/>
      <point x="27" y="287" type="line"/>
      <point x="395" y="287" type="line"/>
      <point x="395" y="123" type="line"/>
      <point x="466" y="123" type="line" smooth="yes"/>
      <point x="479" y="123"/>
      <point x="505" y="137"/>
      <point x="526" y="158"/>
      <point x="540" y="184"/>
      <point x="540" y="197" type="qcurve" smooth="yes"/>
      <point x="540" y="250" type="line" smooth="yes"/>
      <point x="540" y="262"/>
      <point x="528" y="289"/>
      <point x="508" y="312"/>
      <point x="481" y="327"/>
      <point x="466" y="327" type="qcurve" smooth="yes"/>
      <point x="414" y="327" type="line"/>
      <point x="414" y="328" type="line"/>
    </contour>
  </outline>
</glyph>
<glyph name="T" format="2">
  <advance width="661"/>
  <unicode hex="0054"/>
  <outline>
    <contour>
      <point x="626" y="697" type="line"/>
      <point x="626" y="574" type="line"/>
      <point x="491" y="574" type="line"/>
      <point x="491" y="0" type="line"/>
      <point x="163" y="0" type="line"/>
      <point x="163" y="574" type="line"/>
      <point x="32" y="574" type="line"/>
      <point x="32" y="697" type="line"/>
    </contour>
  </outline>
</glyph>
<glyph name="V" format="2">
  <advance width="812"/>
  <unicode hex="0056"/>
  <outline>
    <contour>
      <point x="545" y="439" type="line"/>
      <point x="661" y="696" type="line"/>
      <point x="801" y="696" type="line"/>
      <point x="478" y="0" type="line"/>
      <point x="339" y="0" type="line"/>
      <point x="22" y="696" type="line"/>
      <point x="432" y="696" type="line"/>
    </contour>
  </outline>
</glyph>
<glyph name="W" format="2">
  <advance width="1309"/>
  <unicode hex="0057"/>
  <outline>
    <contour>
      <point x="856" y="0" type="line"/>
      <point x="649" y="561" type="line"/>
      <point x="449" y="0" type="line"/>
      <point x="277" y="0" type="line"/>
      <point x="20" y="696" type="line"/>
      <point x="389" y="696" type="line"/>
      <point x="493" y="426" type="line"/>
      <point x="594" y="696" type="line"/>
      <point x="968" y="696" type="line"/>
      <point x="1072" y="426" type="line"/>
      <point x="1173" y="696" type="line"/>
      <point x="1276" y="696" type="line"/>
      <point x="1028" y="0" type="line"/>
    </contour>
  </outline>
</glyph>
<glyph name="X" format="2">
  <advance width="727"/>
  <unicode hex="0058"/>
  <outline>
    <contour>
      <point x="512" y="266" type="line"/>
      <point x="712" y="0" type="line"/>
      <point x="554" y="0" type="line"/>
      <point x="450" y="134" type="line"/>
      <point x="388" y="0" type="line"/>
      <point x="16" y="0" type="line"/>
      <point x="213" y="442" type="line"/>
      <point x="16" y="697" type="line"/>
      <point x="187" y="697" type="line"/>
      <point x="275" y="580" type="line"/>
      <point x="327" y="697" type="line"/>
      <point x="712" y="697" type="line"/>
    </contour>
  </outline>
</glyph>
<glyph name="Y" format="2">
  <advance width="802"/>
  <unicode hex="0059"/>
  <outline>
    <contour>
      <point x="386" y="696" type="line"/>
      <point x="777" y="696" type="line"/>
      <point x="406" y="0" type="line"/>
      <point x="10" y="0" type="line"/>
      <point x="240" y="426" type="line"/>
      <point x="85" y="696" type="line"/>
      <point x="212" y="696" type="line"/>
      <point x="302" y="541" type="line"/>
    </contour>
  </outline>
</glyph>
<glyph name="bracketleft" format="2">
  <advance width="287"/>
  <unicode hex="005B"/>
  <outline>
    <contour>
      <point x="410" y="831" type="line"/>
      <point x="410" y="708" type="line"/>
      <point x="255" y="708" type="line"/>
      <point x="255" y="-12" type="line"/>
      <point x="410" y="-12" type="line"/>
      <point x="410" y="-134" type="line"/>
      <point x="29" y="-134" type="line"/>
      <point x="29" y="832" type="line"/>
    </contour>
  </outline>
</glyph>
<glyph name="backslash" format="2">
  <advance width="420"/>
  <unicode hex="005C"/>
  <outline>
    <contour>
      <point x="96" y="800" type="line"/>
      <point x="403" y="-99" type="line"/>
      <point x="319" y="-99" type="line"/>
      <point x="11" y="800" type="line"/>
    </contour>
  </outline>
</glyph>
<glyph name="bracketright" format="2">
  <advance width="287"/>
  <unicode hex="005D"/>
  <outline>
    <contour>
      <point x="410" y="832" type="line"/>
      <point x="410" y="-134" type="line"/>
      <point x="29" y="-134" type="line"/>
      <point x="29" y="-12" type="line"/>
      <point x="184" y="-12" type="line"/>
      <point x="184" y="708" type="line"/>
      <point x="29" y="708" type="line"/>
      <point x="29" y="831" type="line"/>
    </contour>
  </outline>
</glyph>
<glyph name="underscore" format="2">
  <advance width="594"/>
  <unicode hex="005F"/>
  <outline>
    <contour>
      <point x="561" y="-20" type="line"/>
      <point x="561" y="-97" type="line"/>
      <point x="20" y="-97" type="line"/>
      <point x="20" y="-20" type="line"/>
    </contour>
  </outline>
</glyph>
<glyph name="grave" format="2">
  <advance width="481"/>
  <unicode hex="0060"/>
  <outline>
    <contour>
      <point x="233" y="959" type="line"/>
      <point x="349" y="807" type="line"/>
      <point x="297" y="743" type="line"/>
      <point x="119" y="858" type="line"/>
    </contour>
  </outline>
</glyph>
<glyph name="a" format="2">
  <advance width="844"/>
  <unicode hex="0061"/>
  <outline>
    <contour>
      <point x="127" y="0" type="line"/>
      <point x="10" y="0" type="line"/>
      <point x="333" y="696" type="line"/>
      <point x="518" y="696" type="line"/>
      <point x="844" y="0" type="line"/>
      <point x="475" y="0" type="line"/>
      <point x="410" y="157" type="line"/>
      <point x="199" y="157" type="line"/>
    </contour>
    <contour>
      <point x="369" y="259" type="line"/>
      <point x="311" y="400" type="line"/>
      <point x="246" y="259" type="line"/>
    </contour>
  </outline>
</glyph>
<glyph name="b" format="2">
  <advance width="692"/>
  <unicode hex="0062"/>
  <outline>
    <contour>
      <point x="18" y="695" type="line"/>
      <point x="429" y="695" type="line" smooth="yes"/>
      <point x="491" y="695"/>
      <point x="572" y="655"/>
      <point x="631" y="585"/>
      <point x="649" y="508"/>
      <point x="635" y="438" type="qcurve"/>
      <point x="628" y="411"/>
      <point x="601" y="376" type="qcurve"/>
      <point x="645" y="333"/>
      <point x="654" y="283" type="qcurve"/>
      <point x="664" y="204"/>
      <point x="631" y="110"/>
      <point x="572" y="40"/>
      <point x="491" y="0"/>
      <point x="429" y="0" type="qcurve" smooth="yes"/>
      <point x="18" y="0" type="line"/>
    </contour>
    <contour>
      <point x="549" y="216" type="qcurve" smooth="yes"/>
      <point x="549" y="261"/>
      <point x="490" y="320"/>
      <point x="445" y="320" type="qcurve"/>
      <point x="445" y="112" type="line"/>
      <point x="490" y="112"/>
      <point x="549" y="171"/>
    </contour>
    <contour>
      <point x="538" y="497" type="qcurve" smooth="yes"/>
      <point x="538" y="539"/>
      <point x="484" y="594"/>
      <point x="443" y="594" type="qcurve"/>
      <point x="443" y="399" type="line"/>
      <point x="484" y="399"/>
      <point x="538" y="455"/>
    </contour>
  </outline>
</glyph>
<glyph name="c" format="2">
  <advance width="692"/>
  <unicode hex="0063"/>
  <outline>
    <contour>
      <point x="485" y="696" type="line" smooth="yes"/>
      <point x="524" y="696"/>
      <point x="591" y="660"/>
      <point x="641" y="601"/>
      <point x="670" y="528"/>
      <point x="671" y="492" type="qcurve"/>
      <point x="548" y="492" type="line"/>
      <point x="548" y="496" type="line" smooth="yes"/>
      <point x="548" y="508"/>
      <point x="536" y="535"/>
      <point x="516" y="558"/>
      <point x="489" y="573"/>
      <point x="474" y="573" type="qcurve" smooth="yes"/>
      <point x="388" y="573" type="line"/>
      <point x="388" y="123" type="line"/>
      <point x="474" y="123" type="line" smooth="yes"/>
      <point x="489" y="123"/>
      <point x="516" y="138"/>
      <point x="536" y="162"/>
      <point x="548" y="189"/>
      <point x="548" y="201" type="qcurve" smooth="yes"/>
      <point x="548" y="205" type="line"/>
      <point x="671" y="205" type="line"/>
      <point x="670" y="163"/>
      <point x="638" y="88"/>
      <point x="584" y="32"/>
      <point x="510" y="0"/>
      <point x="467" y="0" type="qcurve" smooth="yes"/>
      <point x="206" y="0" type="line" smooth="yes"/>
      <point x="167" y="0"/>
      <point x="100" y="37"/>
      <point x="49" y="95"/>
      <point x="20" y="169"/>
      <point x="20" y="205" type="qcurve" smooth="yes"/>
      <point x="20" y="492" type="line" smooth="yes"/>
      <point x="20" y="528"/>
      <point x="49" y="601"/>
      <point x="100" y="659"/>
      <point x="167" y="696"/>
      <point x="206" y="696" type="qcurve" smooth="yes"/>
    </contour>
  </outline>
</glyph>
<glyph name="d" format="2">
  <advance width="673"/>
  <unicode hex="0064"/>
  <outline>
    <contour>
      <point x="639" y="205" type="line" smooth="yes"/>
      <point x="639" y="163"/>
      <point x="607" y="88"/>
      <point x="551" y="32"/>
      <point x="476" y="0"/>
      <point x="434" y="0" type="qcurve" smooth="yes"/>
      <point x="22" y="0" type="line"/>
      <point x="22" y="697" type="line"/>
      <point x="434" y="697" type="line" smooth="yes"/>
      <point x="476" y="697"/>
      <point x="551" y="664"/>
      <point x="606" y="609"/>
      <point x="639" y="534"/>
      <point x="639" y="492" type="qcurve" smooth="yes"/>
    </contour>
    <contour>
      <point x="516" y="499" type="line" smooth="yes"/>
      <point x="516" y="512"/>
      <point x="502" y="539"/>
      <point x="481" y="560"/>
      <point x="455" y="573"/>
      <point x="442" y="573" type="qcurve" smooth="yes"/>
      <point x="349" y="573" type="line"/>
      <point x="349" y="123" type="line"/>
      <point x="442" y="123" type="line" smooth="yes"/>
      <point x="455" y="123"/>
      <point x="481" y="137"/>
      <point x="502" y="158"/>
      <point x="516" y="184"/>
      <point x="516" y="197" type="qcurve" smooth="yes"/>
    </contour>
  </outline>
</glyph>
<glyph name="e" format="2">
  <advance width="616"/>
  <unicode hex="0065"/>
  <outline>
    <contour>
      <point x="349" y="419" type="line"/>
      <point x="524" y="419" type="line"/>
      <point x="524" y="315" type="line"/>
      <point x="349" y="315" type="line"/>
      <point x="349" y="123" type="line"/>
      <point x="525" y="123" type="line"/>
      <point x="525" y="0" type="line"/>
      <point x="22" y="0" type="line"/>
      <point x="22" y="696" type="line"/>
      <point x="525" y="696" type="line"/>
      <point x="525" y="573" type="line"/>
      <point x="349" y="573" type="line"/>
    </contour>
  </outline>
</glyph>
<glyph name="f" format="2">
  <advance width="552"/>
  <unicode hex="0066"/>
  <outline>
    <contour>
      <point x="360" y="420" type="line"/>
      <point x="520" y="420" type="line"/>
      <point x="520" y="305" type="line"/>
      <point x="360" y="305" type="line"/>
      <point x="360" y="0" type="line"/>
      <point x="33" y="0" type="line"/>
      <point x="33" y="697" type="line"/>
      <point x="519" y="697" type="line"/>
      <point x="519" y="574" type="line"/>
      <point x="360" y="574" type="line"/>
    </contour>
  </outline>
</glyph>
<glyph name="g" format="2">
  <advance width="711"/>
  <unicode hex="0067"/>
  <outline>
    <contour>
      <point x="511" y="696" type="line" smooth="yes"/>
      <point x="550" y="696"/>
      <point x="617" y="660"/>
      <point x="667" y="601"/>
      <point x="696" y="528"/>
      <point x="697" y="492" type="qcurve"/>
      <point x="574" y="492" type="line"/>
      <point x="574" y="496" type="line" smooth="yes"/>
      <point x="574" y="508"/>
      <point x="562" y="535"/>
      <point x="542" y="558"/>
      <point x="515" y="573"/>
      <point x="500" y="573" type="qcurve" smooth="yes"/>
      <point x="402" y="573" type="line"/>
      <point x="402" y="123" type="line"/>
      <point x="480" y="123" type="line"/>
      <point x="488" y="124"/>
      <point x="497" y="126" type="qcurve" smooth="yes"/>
      <point x="514" y="130"/>
      <point x="529" y="137" type="qcurve" smooth="yes"/>
      <point x="567" y="156"/>
      <point x="567" y="197" type="qcurve" smooth="yes"/>
      <point x="567" y="205" type="line"/>
      <point x="503" y="205" type="line"/>
      <point x="503" y="328" type="line"/>
      <point x="690" y="328" type="line"/>
      <point x="690" y="205" type="line" smooth="yes"/>
      <point x="690" y="163"/>
      <point x="657" y="89"/>
      <point x="602" y="33"/>
      <point x="564" y="16" type="qcurve" smooth="yes"/>
      <point x="530" y="1"/>
      <point x="493" y="0" type="qcurve"/>
      <point x="220" y="0" type="line" smooth="yes"/>
      <point x="181" y="0"/>
      <point x="114" y="37"/>
      <point x="63" y="95"/>
      <point x="34" y="169"/>
      <point x="34" y="205" type="qcurve" smooth="yes"/>
      <point x="34" y="492" type="line" smooth="yes"/>
      <point x="34" y="528"/>
      <point x="63" y="601"/>
      <point x="114" y="659"/>
      <point x="181" y="696"/>
      <point x="220" y="696" type="qcurve" smooth="yes"/>
    </contour>
  </outline>
</glyph>
<glyph name="k" format="2">
  <advance width="691"/>
  <unicode hex="006B"/>
  <outline>
    <contour>
      <point x="681" y="0" type="line"/>
      <point x="558" y="0" type="line"/>
      <point x="433" y="265" type="line"/>
      <point x="411" y="223" type="line"/>
      <point x="411" y="0" type="line"/>
      <point x="42" y="0" type="line"/>
      <point x="42" y="697" type="line"/>
      <point x="411" y="697" type="line"/>
      <point x="411" y="452" type="line"/>
      <point x="539" y="697" type="line"/>
      <point x="662" y="697" type="line"/>
      <point x="497" y="386" type="line"/>
    </contour>
  </outline>
</glyph>
<glyph name="l" format="2">
  <advance width="605"/>
  <unicode hex="006C"/>
  <outline>
    <contour>
      <point x="580" y="123" type="line"/>
      <point x="580" y="0" type="line"/>
      <point x="26" y="0" type="line"/>
      <point x="26" y="697" type="line"/>
      <point x="354" y="697" type="line"/>
      <point x="354" y="123" type="line"/>
    </contour>
  </outline>
</glyph>
<glyph name="m" format="2">
  <advance width="1068"/>
  <unicode hex="006D"/>
  <outline>
    <contour>
      <point x="410" y="696" type="line"/>
      <point x="529" y="495" type="line"/>
      <point x="648" y="696" type="line"/>
      <point x="1016" y="696" type="line"/>
      <point x="1016" y="0" type="line"/>
      <point x="648" y="0" type="line"/>
      <point x="648" y="493" type="line"/>
      <point x="531" y="289" type="line"/>
      <point x="531" y="286" type="line"/>
      <point x="411" y="493" type="line"/>
      <point x="410" y="0" type="line"/>
      <point x="42" y="0" type="line"/>
      <point x="42" y="696" type="line"/>
    </contour>
  </outline>
</glyph>
<glyph name="n" format="2">
  <advance width="742"/>
  <unicode hex="006E"/>
  <outline>
    <contour>
      <point x="413" y="697" type="line"/>
      <point x="575" y="420" type="line"/>
      <point x="575" y="697" type="line"/>
      <point x="698" y="697" type="line"/>
      <point x="698" y="0" type="line"/>
      <point x="575" y="0" type="line"/>
      <point x="575" y="172" type="line"/>
      <point x="413" y="446" type="line"/>
      <point x="413" y="0" type="line"/>
      <point x="44" y="0" type="line"/>
      <point x="44" y="697" type="line"/>
    </contour>
  </outline>
</glyph>
<glyph name="o" format="2">
  <advance width="711"/>
  <unicode hex="006F"/>
  <outline>
    <contour>
      <point x="666" y="186" type="line" smooth="yes"/>
      <point x="666" y="148"/>
      <point x="630" y="80"/>
      <point x="571" y="29"/>
      <point x="498" y="0"/>
      <point x="462" y="0" type="qcurve"/>
      <point x="210" y="1" type="line"/>
      <point x="171" y="1"/>
      <point x="103" y="37"/>
      <point x="52" y="95"/>
      <point x="23" y="168"/>
      <point x="23" y="205" type="qcurve" smooth="yes"/>
      <point x="23" y="510" type="line" smooth="yes"/>
      <point x="23" y="543"/>
      <point x="57" y="609"/>
      <point x="110" y="663"/>
      <point x="177" y="696"/>
      <point x="210" y="696" type="qcurve" smooth="yes"/>
      <point x="480" y="696" type="line" smooth="yes"/>
      <point x="518" y="696"/>
      <point x="586" y="659"/>
      <point x="637" y="601"/>
      <point x="666" y="528"/>
      <point x="666" y="492" type="qcurve" smooth="yes"/>
    </contour>
    <contour>
      <point x="543" y="492" type="line" smooth="yes"/>
      <point x="543" y="507"/>
      <point x="531" y="536"/>
      <point x="511" y="559"/>
      <point x="484" y="573"/>
      <point x="469" y="573" type="qcurve" smooth="yes"/>
      <point x="392" y="573" type="line"/>
      <point x="392" y="123" type="line"/>
      <point x="469" y="123" type="line" smooth="yes"/>
      <point x="482" y="123"/>
      <point x="509" y="136"/>
      <point x="530" y="157"/>
      <point x="543" y="183"/>
      <point x="543" y="197" type="qcurve" smooth="yes"/>
    </contour>
  </outline>
</glyph>
<glyph name="u" format="2">
  <advance width="744"/>
  <unicode hex="0075"/>
  <outline>
    <contour>
      <point x="696" y="696" type="line"/>
      <point x="696" y="185" type="line" smooth="yes"/>
      <point x="696" y="152"/>
      <point x="663" y="86"/>
      <point x="609" y="33"/>
      <point x="543" y="0"/>
      <point x="510" y="0" type="qcurve"/>
      <point x="262" y="-1" type="line"/>
      <point x="226" y="-1"/>
      <point x="153" y="28"/>
      <point x="94" y="79"/>
      <point x="58" y="147"/>
      <point x="58" y="185" type="qcurve" smooth="yes"/>
      <point x="58" y="696" type="line"/>
      <point x="445" y="696" type="line"/>
      <point x="445" y="122" type="line"/>
      <point x="499" y="122" type="line" smooth="yes"/>
      <point x="512" y="122"/>
      <point x="539" y="135"/>
      <point x="560" y="156"/>
      <point x="573" y="182"/>
      <point x="573" y="196" type="qcurve" smooth="yes"/>
      <point x="573" y="696" type="line"/>
    </contour>
  </outline>
</glyph>
<glyph name="v" format="2">
  <advance width="812"/>
  <unicode hex="0076"/>
  <outline>
    <contour>
      <point x="545" y="439" type="line"/>
      <point x="661" y="696" type="line"/>
      <point x="801" y="696" type="line"/>
      <point x="478" y="0" type="line"/>
      <point x="339" y="0" type="line"/>
      <point x="22" y="696" type="line"/>
      <point x="432" y="696" type="line"/>
    </contour>
  </outline>
</glyph>
<glyph name="w" format="2">
  <advance width="1317"/>
  <unicode hex="0077"/>
  <outline>
    <contour>
      <point x="1040" y="439" type="line"/>
      <point x="1156" y="696" type="line"/>
      <point x="1296" y="696" type="line"/>
      <point x="973" y="0" type="line"/>
      <point x="834" y="0" type="line"/>
      <point x="657" y="387" type="line"/>
      <point x="478" y="0" type="line"/>
      <point x="339" y="0" type="line"/>
      <point x="22" y="696" type="line"/>
      <point x="432" y="696" type="line"/>
      <point x="545" y="439" type="line"/>
      <point x="660" y="696" type="line"/>
      <point x="927" y="696" type="line"/>
    </contour>
  </outline>
</glyph>
<glyph name="y" format="2">
  <advance width="713"/>
  <unicode hex="0079"/>
  <outline>
    <contour>
      <point x="301" y="696" type="line"/>
      <point x="688" y="696" type="line"/>
      <point x="428" y="0" type="line"/>
      <point x="32" y="0" type="line"/>
      <point x="201" y="456" type="line"/>
      <point x="29" y="696" type="line"/>
      <point x="163" y="696" type="line"/>
      <point x="253" y="574" type="line"/>
    </contour>
  </outline>
</glyph>
<glyph name="braceleft" format="2">
  <advance width="453"/>
  <unicode hex="007B"/>
  <outline>
    <contour>
      <point x="138" y="597" type="qcurve" smooth="yes"/>
      <point x="135" y="630"/>
      <point x="139" y="693"/>
      <point x="154" y="723" type="qcurve"/>
      <point x="159" y="735"/>
      <point x="176" y="759"/>
      <point x="190" y="769" type="qcurve"/>
      <point x="216" y="790"/>
      <point x="265" y="815"/>
      <point x="319" y="829"/>
      <point x="380" y="834"/>
      <point x="418" y="834" type="qcurve"/>
      <point x="423" y="779" type="line"/>
      <point x="425" y="768"/>
      <point x="428" y="726"/>
      <point x="429" y="710" type="qcurve"/>
      <point x="402" y="704"/>
      <point x="369" y="695"/>
      <point x="348" y="682"/>
      <point x="334" y="663"/>
      <point x="327" y="646" type="qcurve" smooth="yes"/>
      <point x="323" y="638"/>
      <point x="320" y="599"/>
      <point x="319" y="554"/>
      <point x="321" y="512"/>
      <point x="323" y="501" type="qcurve"/>
      <point x="317" y="435"/>
      <point x="298" y="397" type="qcurve"/>
      <point x="289" y="377"/>
      <point x="277" y="365" type="qcurve"/>
      <point x="290" y="350"/>
      <point x="298" y="333" type="qcurve" smooth="yes"/>
      <point x="317" y="295"/>
      <point x="323" y="229" type="qcurve"/>
      <point x="321" y="218"/>
      <point x="319" y="176"/>
      <point x="320" y="131"/>
      <point x="323" y="92"/>
      <point x="327" y="84" type="qcurve" smooth="yes"/>
      <point x="334" y="67"/>
      <point x="348" y="48"/>
      <point x="369" y="35"/>
      <point x="402" y="26"/>
      <point x="429" y="20" type="qcurve"/>
      <point x="428" y="4"/>
      <point x="425" y="-38"/>
      <point x="423" y="-49" type="qcurve"/>
      <point x="418" y="-104" type="line"/>
      <point x="380" y="-104"/>
      <point x="319" y="-99"/>
      <point x="265" y="-85"/>
      <point x="216" y="-60"/>
      <point x="190" y="-39" type="qcurve"/>
      <point x="176" y="-29"/>
      <point x="159" y="-5"/>
      <point x="154" y="7" type="qcurve"/>
      <point x="139" y="37"/>
      <point x="135" y="100"/>
      <point x="138" y="133" type="qcurve" smooth="yes"/>
      <point x="140" y="162"/>
      <point x="137" y="222"/>
      <point x="125" y="249" type="qcurve"/>
      <point x="114" y="269"/>
      <point x="50" y="288"/>
      <point x="15" y="290" type="qcurve"/>
      <point x="15" y="440" type="line"/>
      <point x="50" y="442"/>
      <point x="114" y="461"/>
      <point x="125" y="481" type="qcurve"/>
      <point x="137" y="508"/>
      <point x="140" y="568"/>
    </contour>
  </outline>
</glyph>
<glyph name="braceright" format="2">
  <advance width="453"/>
  <unicode hex="007D"/>
  <outline>
    <contour>
      <point x="306" y="597" type="qcurve" smooth="yes"/>
      <point x="304" y="568"/>
      <point x="307" y="508"/>
      <point x="319" y="481" type="qcurve"/>
      <point x="330" y="461"/>
      <point x="394" y="442"/>
      <point x="429" y="440" type="qcurve"/>
      <point x="429" y="290" type="line"/>
      <point x="394" y="288"/>
      <point x="330" y="269"/>
      <point x="319" y="249" type="qcurve"/>
      <point x="307" y="222"/>
      <point x="304" y="162"/>
      <point x="306" y="133" type="qcurve" smooth="yes"/>
      <point x="309" y="100"/>
      <point x="305" y="37"/>
      <point x="290" y="7" type="qcurve"/>
      <point x="285" y="-5"/>
      <point x="268" y="-29"/>
      <point x="254" y="-39" type="qcurve"/>
      <point x="228" y="-60"/>
      <point x="179" y="-85"/>
      <point x="125" y="-99"/>
      <point x="64" y="-104"/>
      <point x="26" y="-104" type="qcurve"/>
      <point x="21" y="-49" type="line"/>
      <point x="19" y="-38"/>
      <point x="16" y="4"/>
      <point x="15" y="20" type="qcurve"/>
      <point x="42" y="26"/>
      <point x="75" y="35"/>
      <point x="96" y="48"/>
      <point x="110" y="67"/>
      <point x="117" y="84" type="qcurve" smooth="yes"/>
      <point x="121" y="92"/>
      <point x="124" y="131"/>
      <point x="125" y="176"/>
      <point x="123" y="218"/>
      <point x="121" y="229" type="qcurve"/>
      <point x="127" y="295"/>
      <point x="146" y="333" type="qcurve" smooth="yes"/>
      <point x="154" y="350"/>
      <point x="167" y="365" type="qcurve"/>
      <point x="155" y="377"/>
      <point x="146" y="397" type="qcurve"/>
      <point x="127" y="435"/>
      <point x="121" y="501" type="qcurve"/>
      <point x="123" y="512"/>
      <point x="125" y="554"/>
      <point x="124" y="599"/>
      <point x="121" y="638"/>
      <point x="117" y="646" type="qcurve" smooth="yes"/>
      <point x="110" y="663"/>
      <point x="96" y="682"/>
      <point x="75" y="695"/>
      <point x="42" y="704"/>
      <point x="15" y="710" type="qcurve"/>
      <point x="16" y="726"/>
      <point x="19" y="768"/>
      <point x="21" y="779" type="qcurve"/>
      <point x="26" y="834" type="line"/>
      <point x="64" y="834"/>
      <point x="125" y="829"/>
      <point x="179" y="815"/>
      <point x="228" y="790"/>
      <point x="254" y="769" type="qcurve"/>
      <point x="268" y="759"/>
      <point x="285" y="735"/>
      <point x="290" y="723" type="qcurve"/>
      <point x="305" y="693"/>
      <point x="309" y="630"/>
    </contour>
  </outline>
</glyph>
<glyph name="asciitilde" format="2">
  <advance width="564"/>
  <unicode hex="007E"/>
  <outline>
    <contour>
      <point x="293" y="455" type="qcurve" smooth="yes"/>
      <point x="314" y="443"/>
      <point x="359" y="423"/>
      <point x="383" y="421" type="qcurve"/>
      <point x="402" y="422"/>
      <point x="440" y="463"/>
      <point x="454" y="488" type="qcurve"/>
      <point x="543" y="434" type="line"/>
      <point x="535" y="419"/>
      <point x="524" y="398"/>
      <point x="514" y="378"/>
      <point x="501" y="357"/>
      <point x="492" y="342" type="qcurve" smooth="yes"/>
      <point x="482" y="327"/>
      <point x="462" y="298"/>
      <point x="437" y="276"/>
      <point x="404" y="263"/>
      <point x="382" y="263" type="qcurve" smooth="yes"/>
      <point x="346" y="263"/>
      <point x="296" y="282" type="qcurve"/>
      <point x="288" y="288"/>
      <point x="258" y="305"/>
      <point x="225" y="321"/>
      <point x="195" y="332"/>
      <point x="188" y="332" type="qcurve"/>
      <point x="173" y="333"/>
      <point x="153" y="330"/>
      <point x="136" y="319"/>
      <point x="117" y="297"/>
      <point x="102" y="280" type="qcurve"/>
      <point x="91" y="286"/>
      <point x="61" y="304"/>
      <point x="53" y="309" type="qcurve" smooth="yes"/>
      <point x="15" y="334" type="line"/>
      <point x="29" y="362"/>
      <point x="55" y="405"/>
      <point x="84" y="439"/>
      <point x="121" y="467"/>
      <point x="146" y="479" type="qcurve" smooth="yes"/>
      <point x="159" y="485"/>
      <point x="183" y="489"/>
      <point x="194" y="489" type="qcurve" smooth="yes"/>
      <point x="221" y="489"/>
      <point x="269" y="469"/>
    </contour>
  </outline>
</glyph>
<glyph name="sterling" format="2">
  <advance width="778"/>
  <unicode hex="00A3"/>
  <outline>
    <contour>
      <point x="329" y="576" type="qcurve" smooth="yes"/>
      <point x="313" y="559"/>
      <point x="313" y="540" type="qcurve" smooth="yes"/>
      <point x="313" y="435" type="line" smooth="yes"/>
      <point x="313" y="429"/>
      <point x="315" y="411"/>
      <point x="320" y="391"/>
      <point x="330" y="370"/>
      <point x="339" y="361" type="qcurve"/>
      <point x="340" y="360" type="line"/>
      <point x="579" y="360" type="line"/>
      <point x="579" y="279" type="line"/>
      <point x="400" y="279" type="line"/>
      <point x="400" y="278" type="line"/>
      <point x="401" y="277" type="line"/>
      <point x="401" y="275" type="line"/>
      <point x="402" y="274" type="line"/>
      <point x="402" y="272" type="line"/>
      <point x="403" y="271" type="line"/>
      <point x="403" y="269" type="line"/>
      <point x="404" y="268" type="line"/>
      <point x="404" y="267" type="line"/>
      <point x="410" y="246"/>
      <point x="410" y="220" type="qcurve" smooth="yes"/>
      <point x="410" y="200"/>
      <point x="401" y="167"/>
      <point x="394" y="153" type="qcurve"/>
      <point x="411" y="167"/>
      <point x="445" y="176"/>
      <point x="459" y="176" type="qcurve" smooth="yes"/>
      <point x="477" y="176"/>
      <point x="489" y="172" type="qcurve" smooth="yes"/>
      <point x="551" y="151" type="line"/>
      <point x="562" y="146"/>
      <point x="586" y="139"/>
      <point x="599" y="134" type="qcurve"/>
      <point x="598" y="134" type="line"/>
      <point x="603" y="132"/>
      <point x="614" y="128"/>
      <point x="619" y="126" type="qcurve" smooth="yes"/>
      <point x="628" y="123"/>
      <point x="637" y="123" type="qcurve" smooth="yes"/>
      <point x="656" y="123"/>
      <point x="684" y="142" type="qcurve" smooth="yes"/>
      <point x="692" y="147"/>
      <point x="707" y="162"/>
      <point x="714" y="170" type="qcurve"/>
      <point x="751" y="157" type="line"/>
      <point x="737" y="122"/>
      <point x="707" y="71"/>
      <point x="677" y="37"/>
      <point x="647" y="15"/>
      <point x="634" y="9" type="qcurve" smooth="yes"/>
      <point x="611" y="0"/>
      <point x="591" y="0" type="qcurve" smooth="yes"/>
      <point x="586" y="0"/>
      <point x="577" y="1"/>
      <point x="572" y="2" type="qcurve"/>
      <point x="488" y="33" type="line"/>
      <point x="482" y="37"/>
      <point x="459" y="47"/>
      <point x="439" y="54" type="qcurve"/>
      <point x="431" y="58"/>
      <point x="421" y="58" type="qcurve"/>
      <point x="419" y="58"/>
      <point x="405" y="56"/>
      <point x="395" y="51" type="qcurve"/>
      <point x="387" y="38"/>
      <point x="360" y="16"/>
      <point x="344" y="8" type="qcurve"/>
      <point x="322" y="0"/>
      <point x="303" y="0" type="qcurve"/>
      <point x="260" y="-1"/>
      <point x="126" y="0" type="qcurve"/>
      <point x="93" y="4"/>
      <point x="64" y="27"/>
      <point x="54" y="50" type="qcurve" smooth="yes"/>
      <point x="50" y="61"/>
      <point x="50" y="75" type="qcurve" smooth="yes"/>
      <point x="50" y="79"/>
      <point x="52" y="100"/>
      <point x="60" y="116" type="qcurve" smooth="yes"/>
      <point x="77" y="148"/>
      <point x="116" y="165" type="qcurve"/>
      <point x="124" y="169" type="line"/>
      <point x="149" y="201" type="line" smooth="yes"/>
      <point x="157" y="211"/>
      <point x="157" y="222" type="qcurve" smooth="yes"/>
      <point x="157" y="225"/>
      <point x="153" y="245"/>
      <point x="143" y="262" type="qcurve"/>
      <point x="142" y="263" type="line"/>
      <point x="142" y="264" type="line"/>
      <point x="141" y="264" type="line"/>
      <point x="141" y="265" type="line"/>
      <point x="139" y="267" type="line"/>
      <point x="139" y="268" type="line"/>
      <point x="138" y="268" type="line"/>
      <point x="138" y="269" type="line"/>
      <point x="137" y="270" type="line"/>
      <point x="134" y="274"/>
      <point x="130" y="279" type="qcurve"/>
      <point x="17" y="279" type="line"/>
      <point x="17" y="360" type="line"/>
      <point x="64" y="360" type="line"/>
      <point x="60" y="371"/>
      <point x="53" y="392"/>
      <point x="51" y="402" type="qcurve" smooth="yes"/>
      <point x="49" y="415"/>
      <point x="45" y="440"/>
      <point x="44" y="453" type="qcurve"/>
      <point x="44" y="534" type="line" smooth="yes"/>
      <point x="44" y="568"/>
      <point x="69" y="627"/>
      <point x="113" y="671"/>
      <point x="172" y="696"/>
      <point x="205" y="696" type="qcurve" smooth="yes"/>
      <point x="614" y="696" type="line"/>
      <point x="614" y="593" type="line"/>
      <point x="364" y="593" type="line" smooth="yes"/>
      <point x="346" y="593"/>
    </contour>
  </outline>
</glyph>
<glyph name="yen" format="2">
  <advance width="826"/>
  <unicode hex="00A5"/>
  <outline>
    <contour>
      <point x="359" y="696" type="line"/>
      <point x="746" y="696" type="line"/>
      <point x="486" y="0" type="line"/>
      <point x="90" y="0" type="line"/>
      <point x="259" y="456" type="line"/>
      <point x="87" y="696" type="line"/>
      <point x="221" y="696" type="line"/>
      <point x="311" y="574" type="line"/>
    </contour>
    <contour>
      <point x="806" y="498" type="line"/>
      <point x="806" y="419" type="line"/>
      <point x="24" y="419" type="line"/>
      <point x="24" y="498" type="line"/>
    </contour>
    <contour>
      <point x="806" y="284" type="line"/>
      <point x="806" y="205" type="line"/>
      <point x="24" y="205" type="line"/>
      <point x="24" y="284" type="line"/>
    </contour>
  </outline>
</glyph>
<glyph name="dieresis" format="2">
  <advance width="505"/>
  <unicode hex="00A8"/>
  <outline>
    <contour>
      <point x="65" y="817" type="qcurve" smooth="yes"/>
      <point x="65" y="849"/>
      <point x="108" y="892"/>
      <point x="140" y="892" type="qcurve" smooth="yes"/>
      <point x="172" y="892"/>
      <point x="215" y="849"/>
      <point x="215" y="817" type="qcurve" smooth="yes"/>
      <point x="215" y="785"/>
      <point x="172" y="743"/>
      <point x="140" y="743" type="qcurve" smooth="yes"/>
      <point x="108" y="743"/>
      <point x="65" y="785"/>
    </contour>
    <contour>
      <point x="279" y="817" type="qcurve" smooth="yes"/>
      <point x="279" y="849"/>
      <point x="321" y="892"/>
      <point x="353" y="892" type="qcurve" smooth="yes"/>
      <point x="385" y="892"/>
      <point x="428" y="849"/>
      <point x="428" y="817" type="qcurve" smooth="yes"/>
      <point x="428" y="785"/>
      <point x="385" y="743"/>
      <point x="353" y="743" type="qcurve" smooth="yes"/>
      <point x="321" y="743"/>
      <point x="279" y="785"/>
    </contour>
  </outline>
</glyph>
<glyph name="guillemotleft" format="2">
  <advance width="897"/>
  <unicode hex="00AB"/>
  <outline>
    <contour>
      <point x="44" y="239" type="line"/>
      <point x="44" y="439" type="line"/>
      <point x="417" y="665" type="line"/>
      <point x="489" y="577" type="line"/>
      <point x="201" y="339" type="line"/>
      <point x="489" y="101" type="line"/>
      <point x="417" y="13" type="line"/>
    </contour>
    <contour>
      <point x="415" y="239" type="line"/>
      <point x="415" y="439" type="line"/>
      <point x="788" y="665" type="line"/>
      <point x="860" y="577" type="line"/>
      <point x="572" y="339" type="line"/>
      <point x="860" y="101" type="line"/>
      <point x="788" y="13" type="line"/>
    </contour>
  </outline>
</glyph>
<glyph name="macron" format="2">
  <advance width="398"/>
  <unicode hex="00AF"/>
  <outline>
    <contour>
      <point x="22" y="876" type="line"/>
      <point x="377" y="876" type="line"/>
      <point x="377" y="743" type="line"/>
      <point x="22" y="743" type="line"/>
    </contour>
  </outline>
</glyph>
<glyph name="acute" format="2">
  <advance width="481"/>
  <unicode hex="00B4"/>
  <outline>
    <contour>
      <point x="349" y="858" type="line"/>
      <point x="171" y="743" type="line"/>
      <point x="119" y="807" type="line"/>
      <point x="235" y="959" type="line"/>
    </contour>
  </outline>
</glyph>
<glyph name="periodcentered" format="2">
  <advance width="417"/>
  <unicode hex="00B7"/>
  <outline>
    <contour>
      <point x="123" y="328" type="qcurve" smooth="yes"/>
      <point x="123" y="368"/>
      <point x="174" y="421"/>
      <point x="214" y="421" type="qcurve" smooth="yes"/>
      <point x="253" y="421"/>
      <point x="305" y="368"/>
      <point x="305" y="328" type="qcurve" smooth="yes"/>
      <point x="305" y="289"/>
      <point x="253" y="237"/>
      <point x="214" y="237" type="qcurve" smooth="yes"/>
      <point x="174" y="237"/>
      <point x="123" y="289"/>
    </contour>
  </outline>
</glyph>
<glyph name="cedilla" format="2">
  <advance width="595"/>
  <unicode hex="00B8"/>
  <outline>
    <contour>
      <point x="236" y="-264" type="line" smooth="yes"/>
      <point x="217" y="-264"/>
      <point x="185" y="-248"/>
      <point x="162" y="-219"/>
      <point x="148" y="-183"/>
      <point x="148" y="-166" type="qcurve" smooth="yes"/>
      <point x="148" y="-146" type="line"/>
      <point x="205" y="-146" type="line"/>
      <point x="205" y="-156"/>
      <point x="207" y="-176"/>
      <point x="215" y="-194"/>
      <point x="229" y="-205"/>
      <point x="241" y="-205" type="qcurve" smooth="yes"/>
      <point x="272" y="-205" type="line"/>
      <point x="272" y="-106" type="line"/>
      <point x="214" y="-106" type="line"/>
      <point x="214" y="0" type="line"/>
      <point x="320" y="0" type="line"/>
      <point x="320" y="-47" type="line"/>
      <point x="352" y="-47" type="line" smooth="yes"/>
      <point x="372" y="-47"/>
      <point x="406" y="-66"/>
      <point x="431" y="-97"/>
      <point x="445" y="-135"/>
      <point x="445" y="-154" type="qcurve" smooth="yes"/>
      <point x="445" y="-177"/>
      <point x="430" y="-220"/>
      <point x="404" y="-248"/>
      <point x="366" y="-264"/>
      <point x="342" y="-264" type="qcurve" smooth="yes"/>
    </contour>
  </outline>
</glyph>
<glyph name="guillemotright" format="2">
  <advance width="897"/>
  <unicode hex="00BB"/>
  <outline>
    <contour>
      <point x="116" y="13" type="line"/>
      <point x="44" y="101" type="line"/>
      <point x="332" y="339" type="line"/>
      <point x="44" y="577" type="line"/>
      <point x="116" y="665" type="line"/>
      <point x="489" y="439" type="line"/>
      <point x="489" y="239" type="line"/>
    </contour>
    <contour>
      <point x="487" y="13" type="line"/>
      <point x="415" y="101" type="line"/>
      <point x="703" y="339" type="line"/>
      <point x="415" y="577" type="line"/>
      <point x="487" y="665" type="line"/>
      <point x="860" y="439" type="line"/>
      <point x="860" y="239" type="line"/>
    </contour>
  </outline>
</glyph>
<glyph name="questiondown" format="2">
  <advance width="729"/>
  <unicode hex="00BF"/>
  <outline>
    <contour>
      <point x="528" y="124" type="qcurve" smooth="yes"/>
      <point x="547" y="128"/>
      <point x="574" y="154"/>
      <point x="588" y="204"/>
      <point x="588" y="245" type="qcurve"/>
      <point x="711" y="245" type="line"/>
      <point x="711" y="204" type="line" smooth="yes"/>
      <point x="711" y="162"/>
      <point x="679" y="88"/>
      <point x="623" y="33"/>
      <point x="549" y="0"/>
      <point x="507" y="0" type="qcurve"/>
      <point x="203" y="1" type="line"/>
      <point x="170" y="1"/>
      <point x="104" y="34"/>
      <point x="51" y="86"/>
      <point x="18" y="153"/>
      <point x="18" y="186" type="qcurve"/>
      <point x="17" y="326" type="line"/>
      <point x="17" y="370"/>
      <point x="51" y="419"/>
      <point x="105" y="443"/>
      <point x="172" y="449"/>
      <point x="205" y="449" type="qcurve"/>
      <point x="205" y="536" type="line"/>
      <point x="499" y="536" type="line"/>
      <point x="499" y="120" type="line"/>
      <point x="515" y="121"/>
    </contour>
    <contour>
      <point x="205" y="571" type="line"/>
      <point x="205" y="694" type="line"/>
      <point x="499" y="694" type="line"/>
      <point x="499" y="571" type="line"/>
    </contour>
  </outline>
</glyph>
<glyph name="ae" format="2">
  <advance width="1089"/>
  <unicode hex="00E6"/>
  <outline>
    <contour>
      <point x="154" y="0" type="line"/>
      <point x="14" y="0" type="line"/>
      <point x="494" y="696" type="line"/>
      <point x="1071" y="696" type="line"/>
      <point x="1071" y="573" type="line"/>
      <point x="895" y="573" type="line"/>
      <point x="895" y="419" type="line"/>
      <point x="1070" y="419" type="line"/>
      <point x="1070" y="315" type="line"/>
      <point x="895" y="315" type="line"/>
      <point x="895" y="123" type="line"/>
      <point x="1071" y="123" type="line"/>
      <point x="1071" y="0" type="line"/>
      <point x="501" y="0" type="line"/>
      <point x="501" y="86" type="line"/>
      <point x="214" y="86" type="line"/>
    </contour>
    <contour>
      <point x="501" y="494" type="line"/>
      <point x="287" y="190" type="line"/>
      <point x="501" y="190" type="line"/>
    </contour>
  </outline>
</glyph>
<glyph name="Idotaccent" format="2">
  <advance width="397"/>
  <unicode hex="0130"/>
  <outline>
    <contour>
      <point x="361" y="696" type="line"/>
      <point x="361" y="0" type="line"/>
      <point x="34" y="0" type="line"/>
      <point x="34" y="696" type="line"/>
    </contour>
    <contour>
      <point x="113" y="821" type="qcurve" smooth="yes"/>
      <point x="113" y="855"/>
      <point x="157" y="901"/>
      <point x="191" y="901" type="qcurve" smooth="yes"/>
      <point x="225" y="901"/>
      <point x="271" y="855"/>
      <point x="271" y="821" type="qcurve" smooth="yes"/>
      <point x="271" y="787"/>
      <point x="225" y="743"/>
      <point x="191" y="743" type="qcurve" smooth="yes"/>
      <point x="157" y="743"/>
      <point x="113" y="787"/>
    </contour>
  </outline>
</glyph>
<glyph name="dotlessi" format="2">
  <advance width="397"/>
  <unicode hex="0131"/>
  <outline>
    <contour>
      <point x="361" y="696" type="line"/>
      <point x="361" y="0" type="line"/>
      <point x="34" y="0" type="line"/>
      <point x="34" y="696" type="line"/>
    </contour>
  </outline>
</glyph>
<glyph name="OE" format="2">
  <advance width="1137"/>
  <unicode hex="0152"/>
  <outline>
    <contour>
      <point x="936" y="419" type="line"/>
      <point x="1111" y="419" type="line"/>
      <point x="1111" y="315" type="line"/>
      <point x="936" y="315" type="line"/>
      <point x="936" y="123" type="line"/>
      <point x="1112" y="123" type="line"/>
      <point x="1112" y="0" type="line"/>
      <point x="609" y="0" type="line"/>
      <point x="609" y="62" type="line"/>
      <point x="605" y="58"/>
      <point x="600" y="54" type="qcurve" smooth="yes"/>
      <point x="571" y="29"/>
      <point x="498" y="0"/>
      <point x="462" y="0" type="qcurve"/>
      <point x="210" y="1" type="line"/>
      <point x="171" y="1"/>
      <point x="103" y="37"/>
      <point x="52" y="95"/>
      <point x="23" y="168"/>
      <point x="23" y="205" type="qcurve" smooth="yes"/>
      <point x="23" y="510" type="line" smooth="yes"/>
      <point x="23" y="543"/>
      <point x="57" y="609"/>
      <point x="110" y="663"/>
      <point x="177" y="696"/>
      <point x="210" y="696" type="qcurve" smooth="yes"/>
      <point x="480" y="696" type="line" smooth="yes"/>
      <point x="518" y="696"/>
      <point x="552" y="677" type="qcurve" smooth="yes"/>
      <point x="584" y="660"/>
      <point x="609" y="633" type="qcurve"/>
      <point x="609" y="696" type="line"/>
      <point x="1112" y="696" type="line"/>
      <point x="1112" y="573" type="line"/>
      <point x="936" y="573" type="line"/>
    </contour>
    <contour>
      <point x="543" y="492" type="line" smooth="yes"/>
      <point x="543" y="507"/>
      <point x="531" y="536"/>
      <point x="511" y="559"/>
      <point x="484" y="573"/>
      <point x="469" y="573" type="qcurve" smooth="yes"/>
      <point x="392" y="573" type="line"/>
      <point x="392" y="123" type="line"/>
      <point x="469" y="123" type="line" smooth="yes"/>
      <point x="482" y="123"/>
      <point x="509" y="136"/>
      <point x="530" y="157"/>
      <point x="543" y="183"/>
      <point x="543" y="197" type="qcurve" smooth="yes"/>
    </contour>
  </outline>
</glyph>
<glyph name="circumflex" format="2">
  <advance width="550"/>
  <unicode hex="02C6"/>
  <outline>
    <contour>
      <point x="345" y="959" type="line"/>
      <point x="461" y="807" type="line"/>
      <point x="409" y="743" type="line"/>
      <point x="271" y="832" type="line"/>
      <point x="133" y="743" type="line"/>
      <point x="81" y="807" type="line"/>
      <point x="197" y="959" type="line"/>
    </contour>
  </outline>
</glyph>
<glyph name="caron" format="2">
  <advance width="553"/>
  <unicode hex="02C7"/>
  <outline>
    <contour>
      <point x="197" y="743" type="line"/>
      <point x="81" y="895" type="line"/>
      <point x="133" y="959" type="line"/>
      <point x="271" y="870" type="line"/>
      <point x="409" y="959" type="line"/>
      <point x="461" y="895" type="line"/>
      <point x="345" y="743" type="line"/>
    </contour>
  </outline>
</glyph>
<glyph name="breve" format="2">
  <advance width="598"/>
  <unicode hex="02D8"/>
  <outline>
    <contour>
      <point x="123" y="923" type="line"/>
      <point x="233" y="923" type="line"/>
      <point x="235" y="903"/>
      <point x="240" y="877"/>
      <point x="244" y="873" type="qcurve"/>
      <point x="244" y="874" type="line"/>
      <point x="259" y="861"/>
      <point x="278" y="861" type="qcurve" smooth="yes"/>
      <point x="299" y="861"/>
      <point x="313" y="873" type="qcurve"/>
      <point x="316" y="877"/>
      <point x="324" y="902"/>
      <point x="326" y="923" type="qcurve"/>
      <point x="432" y="923" type="line"/>
      <point x="432" y="897" type="line" smooth="yes"/>
      <point x="432" y="830"/>
      <point x="387" y="787" type="qcurve" smooth="yes"/>
      <point x="342" y="743"/>
      <point x="276" y="743" type="qcurve" smooth="yes"/>
      <point x="211" y="743"/>
      <point x="167" y="787" type="qcurve"/>
      <point x="123" y="834"/>
      <point x="123" y="897" type="qcurve" smooth="yes"/>
    </contour>
  </outline>
</glyph>
<glyph name="dotaccent" format="2">
  <advance width="347"/>
  <unicode hex="02D9"/>
  <outline>
    <contour>
      <point x="98" y="821" type="qcurve" smooth="yes"/>
      <point x="98" y="855"/>
      <point x="142" y="901"/>
      <point x="176" y="901" type="qcurve" smooth="yes"/>
      <point x="210" y="901"/>
      <point x="256" y="855"/>
      <point x="256" y="821" type="qcurve" smooth="yes"/>
      <point x="256" y="787"/>
      <point x="210" y="743"/>
      <point x="176" y="743" type="qcurve" smooth="yes"/>
      <point x="142" y="743"/>
      <point x="98" y="787"/>
    </contour>
  </outline>
</glyph>
<glyph name="ring" format="2">
  <advance width="346"/>
  <unicode hex="02DA"/>
  <outline>
    <contour>
      <point x="177" y="743" type="qcurve" smooth="yes"/>
      <point x="153" y="743"/>
      <point x="113" y="760"/>
      <point x="81" y="789"/>
      <point x="63" y="829"/>
      <point x="63" y="852" type="qcurve" smooth="yes"/>
      <point x="63" y="874"/>
      <point x="81" y="914"/>
      <point x="113" y="943"/>
      <point x="153" y="961"/>
      <point x="177" y="961" type="qcurve" smooth="yes"/>
      <point x="199" y="961"/>
      <point x="242" y="943"/>
      <point x="270" y="914"/>
      <point x="288" y="874"/>
      <point x="288" y="852" type="qcurve" smooth="yes"/>
      <point x="288" y="829"/>
      <point x="270" y="789"/>
      <point x="242" y="760"/>
      <point x="199" y="743"/>
    </contour>
    <contour>
      <point x="175" y="882" type="qcurve" smooth="yes"/>
      <point x="162" y="882"/>
      <point x="143" y="865"/>
      <point x="143" y="852" type="qcurve" smooth="yes"/>
      <point x="143" y="841"/>
      <point x="162" y="823"/>
      <point x="175" y="823" type="qcurve" smooth="yes"/>
      <point x="188" y="823"/>
      <point x="206" y="841"/>
      <point x="206" y="852" type="qcurve" smooth="yes"/>
      <point x="206" y="865"/>
      <point x="188" y="882"/>
    </contour>
  </outline>
</glyph>
<glyph name="ogonek" format="2">
  <advance width="611"/>
  <unicode hex="02DB"/>
  <outline>
    <contour>
      <point x="300" y="0" type="line"/>
      <point x="403" y="0" type="line"/>
      <point x="403" y="-49" type="line" smooth="yes"/>
      <point x="403" y="-60"/>
      <point x="394" y="-81"/>
      <point x="380" y="-97"/>
      <point x="361" y="-107"/>
      <point x="350" y="-107" type="qcurve" smooth="yes"/>
      <point x="334" y="-107" type="line"/>
      <point x="333" y="-205" type="line"/>
      <point x="364" y="-205" type="line" smooth="yes"/>
      <point x="376" y="-205"/>
      <point x="391" y="-193"/>
      <point x="397" y="-176"/>
      <point x="399" y="-156"/>
      <point x="399" y="-147" type="qcurve"/>
      <point x="458" y="-147" type="line"/>
      <point x="458" y="-167" type="line" smooth="yes"/>
      <point x="458" y="-183"/>
      <point x="444" y="-218"/>
      <point x="419" y="-246"/>
      <point x="388" y="-263"/>
      <point x="369" y="-263" type="qcurve" smooth="yes"/>
      <point x="253" y="-263" type="line" smooth="yes"/>
      <point x="234" y="-263"/>
      <point x="200" y="-245"/>
      <point x="175" y="-214"/>
      <point x="159" y="-177"/>
      <point x="159" y="-159" type="qcurve" smooth="yes"/>
      <point x="159" y="-135"/>
      <point x="175" y="-94"/>
      <point x="202" y="-65"/>
      <point x="240" y="-50"/>
      <point x="263" y="-50" type="qcurve" smooth="yes"/>
      <point x="300" y="-50" type="line"/>
    </contour>
  </outline>
</glyph>
<glyph name="tilde" format="2">
  <advance width="485"/>
  <unicode hex="02DC"/>
  <outline>
    <contour>
      <point x="263" y="903" type="qcurve"/>
      <point x="279" y="892"/>
      <point x="314" y="876"/>
      <point x="333" y="875" type="qcurve"/>
      <point x="347" y="875"/>
      <point x="376" y="910"/>
      <point x="387" y="930" type="qcurve"/>
      <point x="456" y="885" type="line"/>
      <point x="450" y="873"/>
      <point x="442" y="855"/>
      <point x="434" y="839"/>
      <point x="424" y="821"/>
      <point x="417" y="809" type="qcurve" smooth="yes"/>
      <point x="402" y="783"/>
      <point x="366" y="743"/>
      <point x="331" y="743" type="qcurve" smooth="yes"/>
      <point x="318" y="743"/>
      <point x="285" y="751"/>
      <point x="265" y="760" type="qcurve"/>
      <point x="259" y="764"/>
      <point x="235" y="778"/>
      <point x="210" y="791"/>
      <point x="187" y="801"/>
      <point x="182" y="801" type="qcurve"/>
      <point x="170" y="802"/>
      <point x="155" y="799"/>
      <point x="141" y="790"/>
      <point x="127" y="772"/>
      <point x="115" y="757" type="qcurve"/>
      <point x="106" y="762"/>
      <point x="84" y="777"/>
      <point x="77" y="782" type="qcurve" smooth="yes"/>
      <point x="48" y="803" type="line"/>
      <point x="59" y="825"/>
      <point x="79" y="861"/>
      <point x="101" y="890"/>
      <point x="129" y="913"/>
      <point x="149" y="923" type="qcurve" smooth="yes"/>
      <point x="159" y="928"/>
      <point x="178" y="931"/>
      <point x="187" y="931" type="qcurve" smooth="yes"/>
      <point x="207" y="931"/>
      <point x="244" y="914"/>
    </contour>
  </outline>
</glyph>
<glyph name="hungarumlaut" format="2">
  <advance width="546"/>
  <unicode hex="02DD"/>
  <outline>
    <contour>
      <point x="528" y="858" type="line"/>
      <point x="350" y="743" type="line"/>
      <point x="298" y="807" type="line"/>
      <point x="414" y="959" type="line"/>
    </contour>
    <contour>
      <point x="262" y="858" type="line"/>
      <point x="84" y="743" type="line"/>
      <point x="32" y="807" type="line"/>
      <point x="148" y="959" type="line"/>
    </contour>
  </outline>
</glyph>
<glyph name="quoteleft" format="2">
  <advance width="250"/>
  <unicode hex="2018"/>
  <outline>
    <contour>
      <point x="215" y="453" type="line"/>
      <point x="35" y="453" type="line"/>
      <point x="35" y="599" type="line"/>
      <point x="215" y="697" type="line"/>
    </contour>
  </outline>
</glyph>
<glyph name="quoteright" format="2">
  <advance width="250"/>
  <unicode hex="2019"/>
  <outline>
    <contour>
      <point x="35" y="697" type="line"/>
      <point x="215" y="697" type="line"/>
      <point x="215" y="551" type="line"/>
      <point x="35" y="453" type="line"/>
    </contour>
  </outline>
</glyph>
<glyph name="quotesinglbase" format="2">
  <advance width="252"/>
  <unicode hex="201A"/>
  <outline>
    <contour>
      <point x="35" y="132" type="line"/>
      <point x="215" y="132" type="line"/>
      <point x="215" y="-14" type="line"/>
      <point x="35" y="-112" type="line"/>
    </contour>
  </outline>
</glyph>
<glyph name="quotedblleft" format="2">
  <advance width="459"/>
  <unicode hex="201C"/>
  <outline>
    <contour>
      <point x="215" y="453" type="line"/>
      <point x="35" y="453" type="line"/>
      <point x="35" y="599" type="line"/>
      <point x="215" y="697" type="line"/>
    </contour>
    <contour>
      <point x="430" y="453" type="line"/>
      <point x="250" y="453" type="line"/>
      <point x="250" y="599" type="line"/>
      <point x="430" y="697" type="line"/>
    </contour>
  </outline>
</glyph>
<glyph name="quotedblright" format="2">
  <advance width="474"/>
  <unicode hex="201D"/>
  <outline>
    <contour>
      <point x="35" y="697" type="line"/>
      <point x="215" y="697" type="line"/>
      <point x="215" y="551" type="line"/>
      <point x="35" y="453" type="line"/>
    </contour>
    <contour>
      <point x="252" y="697" type="line"/>
      <point x="432" y="697" type="line"/>
      <point x="432" y="551" type="line"/>
      <point x="252" y="453" type="line"/>
    </contour>
  </outline>
</glyph>
<glyph name="quotedblbase" format="2">
  <advance width="455"/>
  <unicode hex="201E"/>
  <outline>
    <contour>
      <point x="35" y="132" type="line"/>
      <point x="215" y="132" type="line"/>
      <point x="215" y="-14" type="line"/>
      <point x="35" y="-112" type="line"/>
    </contour>
    <contour>
      <point x="250" y="132" type="line"/>
      <point x="430" y="132" type="line"/>
      <point x="430" y="-14" type="line"/>
      <point x="250" y="-112" type="line"/>
    </contour>
  </outline>
</glyph>
<glyph name="dagger" format="2">
  <advance width="536"/>
  <unicode hex="2020"/>
  <outline>
    <contour>
      <point x="306" y="856" type="line"/>
      <point x="306" y="-153" type="line"/>
      <point x="224" y="-153" type="line"/>
      <point x="224" y="856" type="line"/>
    </contour>
    <contour>
      <point x="514" y="389" type="line"/>
      <point x="514" y="292" type="line"/>
      <point x="18" y="292" type="line"/>
      <point x="18" y="389" type="line"/>
    </contour>
  </outline>
</glyph>
<glyph name="daggerdbl" format="2">
  <advance width="827"/>
  <unicode hex="2021"/>
  <outline>
    <contour>
      <point x="454" y="856" type="line"/>
      <point x="454" y="-153" type="line"/>
      <point x="373" y="-153" type="line"/>
      <point x="373" y="856" type="line"/>
    </contour>
    <contour>
      <point x="805" y="498" type="line"/>
      <point x="805" y="419" type="line"/>
      <point x="24" y="419" type="line"/>
      <point x="24" y="498" type="line"/>
    </contour>
    <contour>
      <point x="805" y="284" type="line"/>
      <point x="805" y="205" type="line"/>
      <point x="24" y="205" type="line"/>
      <point x="24" y="284" type="line"/>
    </contour>
  </outline>
</glyph>
<glyph name="bullet" format="2">
  <advance width="325"/>
  <unicode hex="2022"/>
  <outline>
    <contour>
      <point x="29" y="357" type="qcurve" smooth="yes"/>
      <point x="29" y="384"/>
      <point x="49" y="432"/>
      <point x="85" y="467"/>
      <point x="132" y="488"/>
      <point x="159" y="488" type="qcurve" smooth="yes"/>
      <point x="186" y="488"/>
      <point x="234" y="467"/>
      <point x="269" y="432"/>
      <point x="290" y="384"/>
      <point x="290" y="357" type="qcurve" smooth="yes"/>
      <point x="290" y="330"/>
      <point x="269" y="283"/>
      <point x="234" y="247"/>
      <point x="186" y="227"/>
      <point x="159" y="227" type="qcurve" smooth="yes"/>
      <point x="132" y="227"/>
      <point x="85" y="247"/>
      <point x="49" y="283"/>
      <point x="29" y="330"/>
    </contour>
  </outline>
</glyph>
<glyph name="ellipsis" format="2">
  <advance width="645"/>
  <unicode hex="2026"/>
  <outline>
    <contour>
      <point x="191" y="169" type="line"/>
      <point x="191" y="0" type="line"/>
      <point x="26" y="0" type="line"/>
      <point x="26" y="169" type="line"/>
    </contour>
    <contour>
      <point x="406" y="169" type="line"/>
      <point x="406" y="0" type="line"/>
      <point x="241" y="0" type="line"/>
      <point x="241" y="169" type="line"/>
    </contour>
    <contour>
      <point x="621" y="169" type="line"/>
      <point x="621" y="0" type="line"/>
      <point x="456" y="0" type="line"/>
      <point x="456" y="169" type="line"/>
    </contour>
  </outline>
</glyph>
<glyph name="guilsinglleft" format="2">
  <advance width="387"/>
  <unicode hex="2039"/>
  <outline>
    <contour>
      <point x="22" y="308" type="line"/>
      <point x="22" y="381" type="line"/>
      <point x="284" y="663" type="line"/>
      <point x="361" y="600" type="line"/>
      <point x="132" y="344" type="line"/>
      <point x="361" y="90" type="line"/>
      <point x="284" y="26" type="line"/>
    </contour>
  </outline>
</glyph>
<glyph name="guilsinglright" format="2">
  <advance width="387"/>
  <unicode hex="203A"/>
  <outline>
    <contour>
      <point x="99" y="26" type="line"/>
      <point x="22" y="90" type="line"/>
      <point x="251" y="344" type="line"/>
      <point x="22" y="600" type="line"/>
      <point x="99" y="663" type="line"/>
      <point x="361" y="381" type="line"/>
      <point x="361" y="308" type="line"/>
    </contour>
  </outline>
</glyph>
<glyph name="Euro" format="2">
  <advance width="713"/>
  <unicode hex="20AC"/>
  <outline>
    <contour>
      <point x="392" y="483" type="line"/>
      <point x="675" y="484" type="line"/>
      <point x="675" y="384" type="line"/>
      <point x="392" y="383" type="line"/>
      <point x="392" y="328" type="line"/>
      <point x="675" y="329" type="line"/>
      <point x="675" y="213" type="line"/>
      <point x="392" y="213" type="line"/>
      <point x="392" y="123" type="line"/>
      <point x="677" y="123" type="line"/>
      <point x="677" y="0" type="line"/>
      <point x="269" y="1" type="line"/>
      <point x="230" y="1"/>
      <point x="163" y="37"/>
      <point x="112" y="95"/>
      <point x="83" y="151"/>
      <point x="83" y="179" type="qcurve" smooth="yes"/>
      <point x="83" y="213" type="line"/>
      <point x="21" y="213" type="line"/>
      <point x="21" y="328" type="line"/>
      <point x="83" y="328" type="line"/>
      <point x="83" y="383" type="line"/>
      <point x="21" y="383" type="line"/>
      <point x="21" y="483" type="line"/>
      <point x="83" y="483" type="line"/>
      <point x="83" y="508" type="line" smooth="yes"/>
      <point x="83" y="544"/>
      <point x="112" y="601"/>
      <point x="163" y="660"/>
      <point x="231" y="696"/>
      <point x="269" y="696" type="qcurve" smooth="yes"/>
      <point x="677" y="696" type="line"/>
      <point x="677" y="573" type="line"/>
      <point x="392" y="573" type="line"/>
    </contour>
  </outline>
</glyph>
<glyph name="minus" format="2">
  <advance width="524"/>
  <unicode hex="2212"/>
  <outline>
    <contour>
      <point x="508" y="406" type="line"/>
      <point x="508" y="284" type="line"/>
      <point x="18" y="284" type="line"/>
      <point x="18" y="406" type="line"/>
    </contour>
  </outline>
</glyph>
